<svg xmlns="http://www.w3.org/2000/svg" xmlns:xlink="http://www.w3.org/1999/xlink" width="40" zoomAndPan="magnify" viewBox="0 0 30 30.000001" height="40" preserveAspectRatio="xMidYMid meet" version="1.0"><defs><clipPath id="f5ad421b56"><path d="M 0.484375 0 L 29.515625 0 L 29.515625 29.03125 L 0.484375 29.03125 Z M 0.484375 0 " clip-rule="nonzero"/></clipPath><linearGradient x1="-0" gradientTransform="matrix(0.725806, 0, 0, 0.725806, 0.48387, 0.00000193548)" y1="-0" x2="39.999998" gradientUnits="userSpaceOnUse" y2="39.999998" id="a33398b7ed"><stop stop-opacity="1" stop-color="rgb(0%, 30.599976%, 34.899902%)" offset="0"/><stop stop-opacity="1" stop-color="rgb(0.0137329%, 31.034851%, 35.284424%)" offset="0.00390625"/><stop stop-opacity="1" stop-color="rgb(0.0274658%, 31.471252%, 35.670471%)" offset="0.0078125"/><stop stop-opacity="1" stop-color="rgb(0.0411987%, 31.907654%, 36.056519%)" offset="0.0117188"/><stop stop-opacity="1" stop-color="rgb(0.0549316%, 32.344055%, 36.442566%)" offset="0.015625"/><stop stop-opacity="1" stop-color="rgb(0.0686646%, 32.780457%, 36.828613%)" offset="0.0195312"/><stop stop-opacity="1" stop-color="rgb(0.0839233%, 33.216858%, 37.214661%)" offset="0.0234375"/><stop stop-opacity="1" stop-color="rgb(0.0976562%, 33.653259%, 37.600708%)" offset="0.0273438"/><stop stop-opacity="1" stop-color="rgb(0.111389%, 34.089661%, 37.986755%)" offset="0.03125"/><stop stop-opacity="1" stop-color="rgb(0.125122%, 34.526062%, 38.372803%)" offset="0.0351562"/><stop stop-opacity="1" stop-color="rgb(0.140381%, 34.962463%, 38.75885%)" offset="0.0390625"/><stop stop-opacity="1" stop-color="rgb(0.154114%, 35.398865%, 39.144897%)" offset="0.0429688"/><stop stop-opacity="1" stop-color="rgb(0.167847%, 35.835266%, 39.530945%)" offset="0.046875"/><stop stop-opacity="1" stop-color="rgb(0.18158%, 36.271667%, 39.916992%)" offset="0.0507812"/><stop stop-opacity="1" stop-color="rgb(0.196838%, 36.708069%, 40.30304%)" offset="0.0546875"/><stop stop-opacity="1" stop-color="rgb(0.210571%, 37.14447%, 40.687561%)" offset="0.0585938"/><stop stop-opacity="1" stop-color="rgb(0.224304%, 37.580872%, 41.073608%)" offset="0.0625"/><stop stop-opacity="1" stop-color="rgb(0.238037%, 38.017273%, 41.459656%)" offset="0.0664062"/><stop stop-opacity="1" stop-color="rgb(0.253296%, 38.453674%, 41.845703%)" offset="0.0703125"/><stop stop-opacity="1" stop-color="rgb(0.267029%, 38.890076%, 42.23175%)" offset="0.0742188"/><stop stop-opacity="1" stop-color="rgb(0.280762%, 39.326477%, 42.617798%)" offset="0.078125"/><stop stop-opacity="1" stop-color="rgb(0.294495%, 39.762878%, 43.003845%)" offset="0.0820312"/><stop stop-opacity="1" stop-color="rgb(0.308228%, 40.19928%, 43.389893%)" offset="0.0859375"/><stop stop-opacity="1" stop-color="rgb(0.32196%, 40.635681%, 43.77594%)" offset="0.0898438"/><stop stop-opacity="1" stop-color="rgb(0.337219%, 41.072083%, 44.161987%)" offset="0.09375"/><stop stop-opacity="1" stop-color="rgb(0.350952%, 41.508484%, 44.548035%)" offset="0.0976562"/><stop stop-opacity="1" stop-color="rgb(0.364685%, 41.944885%, 44.934082%)" offset="0.101562"/><stop stop-opacity="1" stop-color="rgb(0.378418%, 42.381287%, 45.318604%)" offset="0.105469"/><stop stop-opacity="1" stop-color="rgb(0.393677%, 42.817688%, 45.704651%)" offset="0.109375"/><stop stop-opacity="1" stop-color="rgb(0.40741%, 43.254089%, 46.090698%)" offset="0.113281"/><stop stop-opacity="1" stop-color="rgb(0.421143%, 43.690491%, 46.476746%)" offset="0.117188"/><stop stop-opacity="1" stop-color="rgb(0.434875%, 44.126892%, 46.862793%)" offset="0.121094"/><stop stop-opacity="1" stop-color="rgb(0.450134%, 44.563293%, 47.24884%)" offset="0.125"/><stop stop-opacity="1" stop-color="rgb(0.463867%, 44.999695%, 47.634888%)" offset="0.128906"/><stop stop-opacity="1" stop-color="rgb(0.4776%, 45.436096%, 48.020935%)" offset="0.132812"/><stop stop-opacity="1" stop-color="rgb(0.491333%, 45.872498%, 48.406982%)" offset="0.136719"/><stop stop-opacity="1" stop-color="rgb(0.506592%, 46.308899%, 48.79303%)" offset="0.140625"/><stop stop-opacity="1" stop-color="rgb(0.520325%, 46.7453%, 49.179077%)" offset="0.144531"/><stop stop-opacity="1" stop-color="rgb(0.534058%, 47.181702%, 49.565125%)" offset="0.148438"/><stop stop-opacity="1" stop-color="rgb(0.547791%, 47.618103%, 49.951172%)" offset="0.152344"/><stop stop-opacity="1" stop-color="rgb(0.563049%, 48.054504%, 50.337219%)" offset="0.15625"/><stop stop-opacity="1" stop-color="rgb(0.576782%, 48.490906%, 50.721741%)" offset="0.160156"/><stop stop-opacity="1" stop-color="rgb(0.590515%, 48.927307%, 51.107788%)" offset="0.164062"/><stop stop-opacity="1" stop-color="rgb(0.604248%, 49.363708%, 51.493835%)" offset="0.167969"/><stop stop-opacity="1" stop-color="rgb(0.617981%, 49.80011%, 51.879883%)" offset="0.171875"/><stop stop-opacity="1" stop-color="rgb(0.631714%, 50.236511%, 52.26593%)" offset="0.175781"/><stop stop-opacity="1" stop-color="rgb(0.646973%, 50.672913%, 52.651978%)" offset="0.179688"/><stop stop-opacity="1" stop-color="rgb(0.660706%, 51.109314%, 53.038025%)" offset="0.183594"/><stop stop-opacity="1" stop-color="rgb(0.674438%, 51.545715%, 53.424072%)" offset="0.1875"/><stop stop-opacity="1" stop-color="rgb(0.688171%, 51.982117%, 53.81012%)" offset="0.191406"/><stop stop-opacity="1" stop-color="rgb(0.70343%, 52.418518%, 54.196167%)" offset="0.195312"/><stop stop-opacity="1" stop-color="rgb(0.717163%, 52.854919%, 54.582214%)" offset="0.199219"/><stop stop-opacity="1" stop-color="rgb(0.730896%, 53.291321%, 54.968262%)" offset="0.203125"/><stop stop-opacity="1" stop-color="rgb(0.744629%, 53.727722%, 55.354309%)" offset="0.207031"/><stop stop-opacity="1" stop-color="rgb(0.759888%, 54.164124%, 55.740356%)" offset="0.210938"/><stop stop-opacity="1" stop-color="rgb(0.773621%, 54.600525%, 56.124878%)" offset="0.214844"/><stop stop-opacity="1" stop-color="rgb(0.787354%, 55.036926%, 56.510925%)" offset="0.21875"/><stop stop-opacity="1" stop-color="rgb(0.801086%, 55.471802%, 56.896973%)" offset="0.222656"/><stop stop-opacity="1" stop-color="rgb(0.816345%, 55.908203%, 57.28302%)" offset="0.226562"/><stop stop-opacity="1" stop-color="rgb(0.830078%, 56.344604%, 57.669067%)" offset="0.230469"/><stop stop-opacity="1" stop-color="rgb(0.843811%, 56.781006%, 58.055115%)" offset="0.234375"/><stop stop-opacity="1" stop-color="rgb(0.857544%, 57.217407%, 58.441162%)" offset="0.238281"/><stop stop-opacity="1" stop-color="rgb(0.871277%, 57.653809%, 58.827209%)" offset="0.242188"/><stop stop-opacity="1" stop-color="rgb(0.88501%, 58.09021%, 59.213257%)" offset="0.246094"/><stop stop-opacity="1" stop-color="rgb(0.900269%, 58.526611%, 59.599304%)" offset="0.25"/><stop stop-opacity="1" stop-color="rgb(0.914001%, 58.963013%, 59.985352%)" offset="0.253906"/><stop stop-opacity="1" stop-color="rgb(0.927734%, 59.399414%, 60.371399%)" offset="0.257812"/><stop stop-opacity="1" stop-color="rgb(0.941467%, 59.835815%, 60.75592%)" offset="0.261719"/><stop stop-opacity="1" stop-color="rgb(0.956726%, 60.272217%, 61.141968%)" offset="0.265625"/><stop stop-opacity="1" stop-color="rgb(0.970459%, 60.708618%, 61.528015%)" offset="0.269531"/><stop stop-opacity="1" stop-color="rgb(0.984192%, 61.14502%, 61.914062%)" offset="0.273438"/><stop stop-opacity="1" stop-color="rgb(0.997925%, 61.581421%, 62.30011%)" offset="0.277344"/><stop stop-opacity="1" stop-color="rgb(1.013184%, 62.017822%, 62.686157%)" offset="0.28125"/><stop stop-opacity="1" stop-color="rgb(1.026917%, 62.454224%, 63.072205%)" offset="0.285156"/><stop stop-opacity="1" stop-color="rgb(1.040649%, 62.890625%, 63.458252%)" offset="0.289062"/><stop stop-opacity="1" stop-color="rgb(1.054382%, 63.327026%, 63.844299%)" offset="0.292969"/><stop stop-opacity="1" stop-color="rgb(1.069641%, 63.763428%, 64.230347%)" offset="0.296875"/><stop stop-opacity="1" stop-color="rgb(1.083374%, 64.199829%, 64.616394%)" offset="0.300781"/><stop stop-opacity="1" stop-color="rgb(1.097107%, 64.63623%, 65.002441%)" offset="0.304688"/><stop stop-opacity="1" stop-color="rgb(1.11084%, 65.072632%, 65.388489%)" offset="0.308594"/><stop stop-opacity="1" stop-color="rgb(1.126099%, 65.509033%, 65.774536%)" offset="0.3125"/><stop stop-opacity="1" stop-color="rgb(1.139832%, 65.945435%, 66.159058%)" offset="0.316406"/><stop stop-opacity="1" stop-color="rgb(1.153564%, 66.381836%, 66.545105%)" offset="0.320312"/><stop stop-opacity="1" stop-color="rgb(1.167297%, 66.818237%, 66.931152%)" offset="0.324219"/><stop stop-opacity="1" stop-color="rgb(1.18103%, 67.254639%, 67.3172%)" offset="0.328125"/><stop stop-opacity="1" stop-color="rgb(1.261902%, 67.54303%, 67.506409%)" offset="0.332031"/><stop stop-opacity="1" stop-color="rgb(1.342773%, 67.831421%, 67.695618%)" offset="0.335938"/><stop stop-opacity="1" stop-color="rgb(1.535034%, 67.87262%, 67.558289%)" offset="0.34375"/><stop stop-opacity="1" stop-color="rgb(1.91803%, 67.956543%, 67.285156%)" offset="0.351562"/><stop stop-opacity="1" stop-color="rgb(2.302551%, 68.040466%, 67.012024%)" offset="0.359375"/><stop stop-opacity="1" stop-color="rgb(2.685547%, 68.12439%, 66.737366%)" offset="0.367188"/><stop stop-opacity="1" stop-color="rgb(3.068542%, 68.209839%, 66.464233%)" offset="0.375"/><stop stop-opacity="1" stop-color="rgb(3.453064%, 68.293762%, 66.191101%)" offset="0.382812"/><stop stop-opacity="1" stop-color="rgb(3.83606%, 68.377686%, 65.916443%)" offset="0.390625"/><stop stop-opacity="1" stop-color="rgb(4.220581%, 68.461609%, 65.643311%)" offset="0.398438"/><stop stop-opacity="1" stop-color="rgb(4.603577%, 68.545532%, 65.370178%)" offset="0.40625"/><stop stop-opacity="1" stop-color="rgb(4.986572%, 68.630981%, 65.09552%)" offset="0.414062"/><stop stop-opacity="1" stop-color="rgb(5.371094%, 68.714905%, 64.822388%)" offset="0.421875"/><stop stop-opacity="1" stop-color="rgb(5.754089%, 68.798828%, 64.549255%)" offset="0.429688"/><stop stop-opacity="1" stop-color="rgb(6.138611%, 68.882751%, 64.274597%)" offset="0.4375"/><stop stop-opacity="1" stop-color="rgb(6.521606%, 68.966675%, 64.001465%)" offset="0.445312"/><stop stop-opacity="1" stop-color="rgb(6.904602%, 69.050598%, 63.728333%)" offset="0.453125"/><stop stop-opacity="1" stop-color="rgb(7.289124%, 69.136047%, 63.453674%)" offset="0.460938"/><stop stop-opacity="1" stop-color="rgb(7.672119%, 69.219971%, 63.180542%)" offset="0.46875"/><stop stop-opacity="1" stop-color="rgb(8.056641%, 69.303894%, 62.905884%)" offset="0.476562"/><stop stop-opacity="1" stop-color="rgb(8.439636%, 69.387817%, 62.632751%)" offset="0.484375"/><stop stop-opacity="1" stop-color="rgb(8.822632%, 69.471741%, 62.359619%)" offset="0.492188"/><stop stop-opacity="1" stop-color="rgb(9.207153%, 69.55719%, 62.084961%)" offset="0.5"/><stop stop-opacity="1" stop-color="rgb(9.399414%, 69.599915%, 61.949158%)" offset="0.5"/><stop stop-opacity="1" stop-color="rgb(9.590149%, 69.641113%, 61.811829%)" offset="0.507812"/><stop stop-opacity="1" stop-color="rgb(9.97467%, 69.725037%, 61.538696%)" offset="0.515625"/><stop stop-opacity="1" stop-color="rgb(10.357666%, 69.80896%, 61.264038%)" offset="0.523438"/><stop stop-opacity="1" stop-color="rgb(10.740662%, 69.892883%, 60.990906%)" offset="0.53125"/><stop stop-opacity="1" stop-color="rgb(11.125183%, 69.976807%, 60.717773%)" offset="0.539062"/><stop stop-opacity="1" stop-color="rgb(11.508179%, 70.062256%, 60.443115%)" offset="0.546875"/><stop stop-opacity="1" stop-color="rgb(11.8927%, 70.146179%, 60.169983%)" offset="0.554688"/><stop stop-opacity="1" stop-color="rgb(12.275696%, 70.230103%, 59.896851%)" offset="0.5625"/><stop stop-opacity="1" stop-color="rgb(12.658691%, 70.314026%, 59.622192%)" offset="0.570312"/><stop stop-opacity="1" stop-color="rgb(13.043213%, 70.397949%, 59.34906%)" offset="0.578125"/><stop stop-opacity="1" stop-color="rgb(13.426208%, 70.483398%, 59.075928%)" offset="0.585938"/><stop stop-opacity="1" stop-color="rgb(13.81073%, 70.567322%, 58.80127%)" offset="0.59375"/><stop stop-opacity="1" stop-color="rgb(14.193726%, 70.651245%, 58.528137%)" offset="0.601562"/><stop stop-opacity="1" stop-color="rgb(14.576721%, 70.735168%, 58.253479%)" offset="0.609375"/><stop stop-opacity="1" stop-color="rgb(14.961243%, 70.819092%, 57.980347%)" offset="0.617188"/><stop stop-opacity="1" stop-color="rgb(15.344238%, 70.904541%, 57.707214%)" offset="0.625"/><stop stop-opacity="1" stop-color="rgb(15.72876%, 70.988464%, 57.432556%)" offset="0.632812"/><stop stop-opacity="1" stop-color="rgb(16.111755%, 71.072388%, 57.159424%)" offset="0.640625"/><stop stop-opacity="1" stop-color="rgb(16.496277%, 71.156311%, 56.886292%)" offset="0.648438"/><stop stop-opacity="1" stop-color="rgb(16.879272%, 71.240234%, 56.611633%)" offset="0.65625"/><stop stop-opacity="1" stop-color="rgb(17.262268%, 71.324158%, 56.338501%)" offset="0.664062"/><stop stop-opacity="1" stop-color="rgb(17.431641%, 71.009827%, 55.952454%)" offset="0.667969"/><stop stop-opacity="1" stop-color="rgb(17.410278%, 70.652771%, 55.702209%)" offset="0.671875"/><stop stop-opacity="1" stop-color="rgb(17.259216%, 70.054626%, 55.384827%)" offset="0.675781"/><stop stop-opacity="1" stop-color="rgb(17.108154%, 69.456482%, 55.067444%)" offset="0.679688"/><stop stop-opacity="1" stop-color="rgb(16.955566%, 68.858337%, 54.748535%)" offset="0.683594"/><stop stop-opacity="1" stop-color="rgb(16.804504%, 68.260193%, 54.431152%)" offset="0.6875"/><stop stop-opacity="1" stop-color="rgb(16.653442%, 67.660522%, 54.112244%)" offset="0.691406"/><stop stop-opacity="1" stop-color="rgb(16.50238%, 67.062378%, 53.794861%)" offset="0.695312"/><stop stop-opacity="1" stop-color="rgb(16.351318%, 66.464233%, 53.477478%)" offset="0.699219"/><stop stop-opacity="1" stop-color="rgb(16.200256%, 65.866089%, 53.160095%)" offset="0.703125"/><stop stop-opacity="1" stop-color="rgb(16.047668%, 65.267944%, 52.841187%)" offset="0.707031"/><stop stop-opacity="1" stop-color="rgb(15.896606%, 64.6698%, 52.523804%)" offset="0.710938"/><stop stop-opacity="1" stop-color="rgb(15.745544%, 64.071655%, 52.204895%)" offset="0.714844"/><stop stop-opacity="1" stop-color="rgb(15.594482%, 63.473511%, 51.887512%)" offset="0.71875"/><stop stop-opacity="1" stop-color="rgb(15.44342%, 62.875366%, 51.568604%)" offset="0.722656"/><stop stop-opacity="1" stop-color="rgb(15.292358%, 62.277222%, 51.251221%)" offset="0.726562"/><stop stop-opacity="1" stop-color="rgb(15.139771%, 61.679077%, 50.933838%)" offset="0.730469"/><stop stop-opacity="1" stop-color="rgb(14.988708%, 61.080933%, 50.616455%)" offset="0.734375"/><stop stop-opacity="1" stop-color="rgb(14.837646%, 60.482788%, 50.297546%)" offset="0.738281"/><stop stop-opacity="1" stop-color="rgb(14.686584%, 59.884644%, 49.980164%)" offset="0.742188"/><stop stop-opacity="1" stop-color="rgb(14.535522%, 59.284973%, 49.661255%)" offset="0.746094"/><stop stop-opacity="1" stop-color="rgb(14.38446%, 58.686829%, 49.343872%)" offset="0.75"/><stop stop-opacity="1" stop-color="rgb(14.231873%, 58.088684%, 49.026489%)" offset="0.753906"/><stop stop-opacity="1" stop-color="rgb(14.080811%, 57.49054%, 48.709106%)" offset="0.757812"/><stop stop-opacity="1" stop-color="rgb(13.929749%, 56.892395%, 48.390198%)" offset="0.761719"/><stop stop-opacity="1" stop-color="rgb(13.778687%, 56.29425%, 48.072815%)" offset="0.765625"/><stop stop-opacity="1" stop-color="rgb(13.627625%, 55.696106%, 47.753906%)" offset="0.769531"/><stop stop-opacity="1" stop-color="rgb(13.476562%, 55.097961%, 47.436523%)" offset="0.773438"/><stop stop-opacity="1" stop-color="rgb(13.323975%, 54.499817%, 47.119141%)" offset="0.777344"/><stop stop-opacity="1" stop-color="rgb(13.172913%, 53.901672%, 46.801758%)" offset="0.78125"/><stop stop-opacity="1" stop-color="rgb(13.021851%, 53.303528%, 46.482849%)" offset="0.785156"/><stop stop-opacity="1" stop-color="rgb(12.870789%, 52.705383%, 46.165466%)" offset="0.789062"/><stop stop-opacity="1" stop-color="rgb(12.719727%, 52.107239%, 45.846558%)" offset="0.792969"/><stop stop-opacity="1" stop-color="rgb(12.568665%, 51.509094%, 45.529175%)" offset="0.796875"/><stop stop-opacity="1" stop-color="rgb(12.416077%, 50.909424%, 45.211792%)" offset="0.800781"/><stop stop-opacity="1" stop-color="rgb(12.265015%, 50.311279%, 44.894409%)" offset="0.804688"/><stop stop-opacity="1" stop-color="rgb(12.113953%, 49.713135%, 44.5755%)" offset="0.808594"/><stop stop-opacity="1" stop-color="rgb(11.962891%, 49.11499%, 44.258118%)" offset="0.8125"/><stop stop-opacity="1" stop-color="rgb(11.811829%, 48.516846%, 43.939209%)" offset="0.816406"/><stop stop-opacity="1" stop-color="rgb(11.660767%, 47.918701%, 43.621826%)" offset="0.820312"/><stop stop-opacity="1" stop-color="rgb(11.508179%, 47.320557%, 43.304443%)" offset="0.824219"/><stop stop-opacity="1" stop-color="rgb(11.357117%, 46.722412%, 42.987061%)" offset="0.828125"/><stop stop-opacity="1" stop-color="rgb(11.206055%, 46.124268%, 42.668152%)" offset="0.832031"/><stop stop-opacity="1" stop-color="rgb(11.054993%, 45.526123%, 42.350769%)" offset="0.835938"/><stop stop-opacity="1" stop-color="rgb(10.903931%, 44.927979%, 42.03186%)" offset="0.839844"/><stop stop-opacity="1" stop-color="rgb(10.752869%, 44.329834%, 41.714478%)" offset="0.84375"/><stop stop-opacity="1" stop-color="rgb(10.600281%, 43.731689%, 41.397095%)" offset="0.847656"/><stop stop-opacity="1" stop-color="rgb(10.449219%, 43.133545%, 41.079712%)" offset="0.851562"/><stop stop-opacity="1" stop-color="rgb(10.298157%, 42.533875%, 40.760803%)" offset="0.855469"/><stop stop-opacity="1" stop-color="rgb(10.147095%, 41.93573%, 40.44342%)" offset="0.859375"/><stop stop-opacity="1" stop-color="rgb(9.996033%, 41.337585%, 40.124512%)" offset="0.863281"/><stop stop-opacity="1" stop-color="rgb(9.844971%, 40.739441%, 39.807129%)" offset="0.867188"/><stop stop-opacity="1" stop-color="rgb(9.692383%, 40.141296%, 39.489746%)" offset="0.871094"/><stop stop-opacity="1" stop-color="rgb(9.541321%, 39.543152%, 39.172363%)" offset="0.875"/><stop stop-opacity="1" stop-color="rgb(9.390259%, 38.945007%, 38.853455%)" offset="0.878906"/><stop stop-opacity="1" stop-color="rgb(9.239197%, 38.346863%, 38.536072%)" offset="0.882812"/><stop stop-opacity="1" stop-color="rgb(9.086609%, 37.748718%, 38.217163%)" offset="0.886719"/><stop stop-opacity="1" stop-color="rgb(8.935547%, 37.150574%, 37.89978%)" offset="0.890625"/><stop stop-opacity="1" stop-color="rgb(8.784485%, 36.552429%, 37.582397%)" offset="0.894531"/><stop stop-opacity="1" stop-color="rgb(8.633423%, 35.954285%, 37.265015%)" offset="0.898438"/><stop stop-opacity="1" stop-color="rgb(8.482361%, 35.35614%, 36.946106%)" offset="0.902344"/><stop stop-opacity="1" stop-color="rgb(8.331299%, 34.757996%, 36.628723%)" offset="0.90625"/><stop stop-opacity="1" stop-color="rgb(8.178711%, 34.158325%, 36.309814%)" offset="0.910156"/><stop stop-opacity="1" stop-color="rgb(8.027649%, 33.560181%, 35.992432%)" offset="0.914062"/><stop stop-opacity="1" stop-color="rgb(7.876587%, 32.962036%, 35.675049%)" offset="0.917969"/><stop stop-opacity="1" stop-color="rgb(7.725525%, 32.363892%, 35.357666%)" offset="0.921875"/><stop stop-opacity="1" stop-color="rgb(7.574463%, 31.765747%, 35.038757%)" offset="0.925781"/><stop stop-opacity="1" stop-color="rgb(7.423401%, 31.167603%, 34.721375%)" offset="0.929688"/><stop stop-opacity="1" stop-color="rgb(7.270813%, 30.569458%, 34.402466%)" offset="0.933594"/><stop stop-opacity="1" stop-color="rgb(7.119751%, 29.971313%, 34.085083%)" offset="0.9375"/><stop stop-opacity="1" stop-color="rgb(6.968689%, 29.373169%, 33.7677%)" offset="0.941406"/><stop stop-opacity="1" stop-color="rgb(6.817627%, 28.775024%, 33.450317%)" offset="0.945312"/><stop stop-opacity="1" stop-color="rgb(6.666565%, 28.17688%, 33.131409%)" offset="0.949219"/><stop stop-opacity="1" stop-color="rgb(6.515503%, 27.578735%, 32.814026%)" offset="0.953125"/><stop stop-opacity="1" stop-color="rgb(6.362915%, 26.980591%, 32.495117%)" offset="0.957031"/><stop stop-opacity="1" stop-color="rgb(6.211853%, 26.382446%, 32.177734%)" offset="0.960938"/><stop stop-opacity="1" stop-color="rgb(6.060791%, 25.782776%, 31.860352%)" offset="0.964844"/><stop stop-opacity="1" stop-color="rgb(5.909729%, 25.184631%, 31.542969%)" offset="0.96875"/><stop stop-opacity="1" stop-color="rgb(5.758667%, 24.586487%, 31.22406%)" offset="0.972656"/><stop stop-opacity="1" stop-color="rgb(5.607605%, 23.988342%, 30.906677%)" offset="0.976562"/><stop stop-opacity="1" stop-color="rgb(5.455017%, 23.390198%, 30.587769%)" offset="0.980469"/><stop stop-opacity="1" stop-color="rgb(5.303955%, 22.792053%, 30.270386%)" offset="0.984375"/><stop stop-opacity="1" stop-color="rgb(5.152893%, 22.193909%, 29.953003%)" offset="0.988281"/><stop stop-opacity="1" stop-color="rgb(5.001831%, 21.595764%, 29.63562%)" offset="0.992188"/><stop stop-opacity="1" stop-color="rgb(4.850769%, 20.99762%, 29.316711%)" offset="0.996094"/><stop stop-opacity="1" stop-color="rgb(4.699707%, 20.399475%, 28.999329%)" offset="1"/></linearGradient><clipPath id="9ce2ba2b6f"><path d="M 15 10 L 18 10 L 18 18 L 15 18 Z M 15 10 " clip-rule="nonzero"/></clipPath><clipPath id="057b640621"><path d="M 2.261719 15.808594 L 19.261719 2.203125 L 27.425781 12.402344 L 10.425781 26.007812 Z M 2.261719 15.808594 " clip-rule="nonzero"/></clipPath><clipPath id="9a4c38e692"><path d="M 2.261719 15.808594 L 19.261719 2.203125 L 27.425781 12.402344 L 10.425781 26.007812 Z M 2.261719 15.808594 " clip-rule="nonzero"/></clipPath><clipPath id="5b15baae26"><path d="M 9 17 L 16 17 L 16 25 L 9 25 Z M 9 17 " clip-rule="nonzero"/></clipPath><clipPath id="a4665c8306"><path d="M 2.261719 15.808594 L 19.261719 2.203125 L 27.425781 12.402344 L 10.425781 26.007812 Z M 2.261719 15.808594 " clip-rule="nonzero"/></clipPath><clipPath id="a29fc720dd"><path d="M 2.261719 15.808594 L 19.261719 2.203125 L 27.425781 12.402344 L 10.425781 26.007812 Z M 2.261719 15.808594 " clip-rule="nonzero"/></clipPath><clipPath id="1466aec1f2"><path d="M 11 9 L 15 9 L 15 14 L 11 14 Z M 11 9 " clip-rule="nonzero"/></clipPath><clipPath id="e032789d2e"><path d="M 2.261719 15.808594 L 19.261719 2.203125 L 27.425781 12.402344 L 10.425781 26.007812 Z M 2.261719 15.808594 " clip-rule="nonzero"/></clipPath><clipPath id="29889a0ea6"><path d="M 2.261719 15.808594 L 19.261719 2.203125 L 27.425781 12.402344 L 10.425781 26.007812 Z M 2.261719 15.808594 " clip-rule="nonzero"/></clipPath><clipPath id="8119b249d7"><path d="M 10 9 L 14 9 L 14 13 L 10 13 Z M 10 9 " clip-rule="nonzero"/></clipPath><clipPath id="864cfd063e"><path d="M 2.261719 15.808594 L 19.261719 2.203125 L 27.425781 12.402344 L 10.425781 26.007812 Z M 2.261719 15.808594 " clip-rule="nonzero"/></clipPath><clipPath id="0b39e8acff"><path d="M 2.261719 15.808594 L 19.261719 2.203125 L 27.425781 12.402344 L 10.425781 26.007812 Z M 2.261719 15.808594 " clip-rule="nonzero"/></clipPath><clipPath id="b2849b7390"><path d="M 10 17 L 12 17 L 12 20 L 10 20 Z M 10 17 " clip-rule="nonzero"/></clipPath><clipPath id="5a2a10a26d"><path d="M 2.261719 15.808594 L 19.261719 2.203125 L 27.425781 12.402344 L 10.425781 26.007812 Z M 2.261719 15.808594 " clip-rule="nonzero"/></clipPath><clipPath id="bcdd0c6a11"><path d="M 2.261719 15.808594 L 19.261719 2.203125 L 27.425781 12.402344 L 10.425781 26.007812 Z M 2.261719 15.808594 " clip-rule="nonzero"/></clipPath><clipPath id="d4bab2099c"><path d="M 9 16 L 12 16 L 12 19 L 9 19 Z M 9 16 " clip-rule="nonzero"/></clipPath><clipPath id="32aea5f0e5"><path d="M 2.261719 15.808594 L 19.261719 2.203125 L 27.425781 12.402344 L 10.425781 26.007812 Z M 2.261719 15.808594 " clip-rule="nonzero"/></clipPath><clipPath id="5931a2d07f"><path d="M 2.261719 15.808594 L 19.261719 2.203125 L 27.425781 12.402344 L 10.425781 26.007812 Z M 2.261719 15.808594 " clip-rule="nonzero"/></clipPath><clipPath id="3d3bdefb11"><path d="M 9 15 L 12 15 L 12 18 L 9 18 Z M 9 15 " clip-rule="nonzero"/></clipPath><clipPath id="7750a1c9c9"><path d="M 2.261719 15.808594 L 19.261719 2.203125 L 27.425781 12.402344 L 10.425781 26.007812 Z M 2.261719 15.808594 " clip-rule="nonzero"/></clipPath><clipPath id="dfacdaffd3"><path d="M 2.261719 15.808594 L 19.261719 2.203125 L 27.425781 12.402344 L 10.425781 26.007812 Z M 2.261719 15.808594 " clip-rule="nonzero"/></clipPath><clipPath id="d85bd2a325"><path d="M 9 14 L 12 14 L 12 17 L 9 17 Z M 9 14 " clip-rule="nonzero"/></clipPath><clipPath id="6344229fd2"><path d="M 2.261719 15.808594 L 19.261719 2.203125 L 27.425781 12.402344 L 10.425781 26.007812 Z M 2.261719 15.808594 " clip-rule="nonzero"/></clipPath><clipPath id="6e085bb85b"><path d="M 2.261719 15.808594 L 19.261719 2.203125 L 27.425781 12.402344 L 10.425781 26.007812 Z M 2.261719 15.808594 " clip-rule="nonzero"/></clipPath><clipPath id="5357903878"><path d="M 10 18 L 12 18 L 12 21 L 10 21 Z M 10 18 " clip-rule="nonzero"/></clipPath><clipPath id="3297dc146e"><path d="M 2.261719 15.808594 L 19.261719 2.203125 L 27.425781 12.402344 L 10.425781 26.007812 Z M 2.261719 15.808594 " clip-rule="nonzero"/></clipPath><clipPath id="b776837e50"><path d="M 2.261719 15.808594 L 19.261719 2.203125 L 27.425781 12.402344 L 10.425781 26.007812 Z M 2.261719 15.808594 " clip-rule="nonzero"/></clipPath><clipPath id="10479d9411"><path d="M 10 17 L 12 17 L 12 20 L 10 20 Z M 10 17 " clip-rule="nonzero"/></clipPath><clipPath id="d0889645c0"><path d="M 2.261719 15.808594 L 19.261719 2.203125 L 27.425781 12.402344 L 10.425781 26.007812 Z M 2.261719 15.808594 " clip-rule="nonzero"/></clipPath><clipPath id="c91fe77a9a"><path d="M 2.261719 15.808594 L 19.261719 2.203125 L 27.425781 12.402344 L 10.425781 26.007812 Z M 2.261719 15.808594 " clip-rule="nonzero"/></clipPath><clipPath id="4d1eda8ebe"><path d="M 9 16 L 12 16 L 12 18 L 9 18 Z M 9 16 " clip-rule="nonzero"/></clipPath><clipPath id="eff345b89a"><path d="M 2.261719 15.808594 L 19.261719 2.203125 L 27.425781 12.402344 L 10.425781 26.007812 Z M 2.261719 15.808594 " clip-rule="nonzero"/></clipPath><clipPath id="acf0eefbe0"><path d="M 2.261719 15.808594 L 19.261719 2.203125 L 27.425781 12.402344 L 10.425781 26.007812 Z M 2.261719 15.808594 " clip-rule="nonzero"/></clipPath><clipPath id="497f22696c"><path d="M 11 9 L 17 9 L 17 19 L 11 19 Z M 11 9 " clip-rule="nonzero"/></clipPath><clipPath id="c71270b80b"><path d="M 2.261719 15.808594 L 19.261719 2.203125 L 27.425781 12.402344 L 10.425781 26.007812 Z M 2.261719 15.808594 " clip-rule="nonzero"/></clipPath><clipPath id="3c48bcee62"><path d="M 2.261719 15.808594 L 19.261719 2.203125 L 27.425781 12.402344 L 10.425781 26.007812 Z M 2.261719 15.808594 " clip-rule="nonzero"/></clipPath><clipPath id="da3b1a8705"><path d="M 8 12 L 12 12 L 12 17 L 8 17 Z M 8 12 " clip-rule="nonzero"/></clipPath><clipPath id="7968533284"><path d="M 2.261719 15.808594 L 19.261719 2.203125 L 27.425781 12.402344 L 10.425781 26.007812 Z M 2.261719 15.808594 " clip-rule="nonzero"/></clipPath><clipPath id="2a7a8477e2"><path d="M 2.261719 15.808594 L 19.261719 2.203125 L 27.425781 12.402344 L 10.425781 26.007812 Z M 2.261719 15.808594 " clip-rule="nonzero"/></clipPath><clipPath id="cc3c296703"><path d="M 12 13 L 15 13 L 15 17 L 12 17 Z M 12 13 " clip-rule="nonzero"/></clipPath><clipPath id="ec7e442b6e"><path d="M 2.261719 15.808594 L 19.261719 2.203125 L 27.425781 12.402344 L 10.425781 26.007812 Z M 2.261719 15.808594 " clip-rule="nonzero"/></clipPath><clipPath id="5997fc525f"><path d="M 2.261719 15.808594 L 19.261719 2.203125 L 27.425781 12.402344 L 10.425781 26.007812 Z M 2.261719 15.808594 " clip-rule="nonzero"/></clipPath><clipPath id="23b49f6c19"><path d="M 10 11 L 19 11 L 19 26 L 10 26 Z M 10 11 " clip-rule="nonzero"/></clipPath><clipPath id="aa1cf28878"><path d="M 2.261719 15.808594 L 19.261719 2.203125 L 27.425781 12.402344 L 10.425781 26.007812 Z M 2.261719 15.808594 " clip-rule="nonzero"/></clipPath><clipPath id="225eeb824c"><path d="M 2.261719 15.808594 L 19.261719 2.203125 L 27.425781 12.402344 L 10.425781 26.007812 Z M 2.261719 15.808594 " clip-rule="nonzero"/></clipPath><clipPath id="ae7965f1d6"><path d="M 6.035156 20.265625 L 17.441406 11.136719 L 22.046875 16.890625 L 10.640625 26.015625 Z M 6.035156 20.265625 " clip-rule="nonzero"/></clipPath><clipPath id="5a940bf93b"><path d="M 15 10 L 24 10 L 24 21 L 15 21 Z M 15 10 " clip-rule="nonzero"/></clipPath><clipPath id="4ed41e994d"><path d="M 2.261719 15.808594 L 19.261719 2.203125 L 27.425781 12.402344 L 10.425781 26.007812 Z M 2.261719 15.808594 " clip-rule="nonzero"/></clipPath><clipPath id="bea4334175"><path d="M 2.261719 15.808594 L 19.261719 2.203125 L 27.425781 12.402344 L 10.425781 26.007812 Z M 2.261719 15.808594 " clip-rule="nonzero"/></clipPath><clipPath id="8fd7afc783"><path d="M 16 13 L 21 13 L 21 20 L 16 20 Z M 16 13 " clip-rule="nonzero"/></clipPath><clipPath id="95e9386cdc"><path d="M 2.261719 15.808594 L 19.261719 2.203125 L 27.425781 12.402344 L 10.425781 26.007812 Z M 2.261719 15.808594 " clip-rule="nonzero"/></clipPath><clipPath id="5d4516c6dc"><path d="M 2.261719 15.808594 L 19.261719 2.203125 L 27.425781 12.402344 L 10.425781 26.007812 Z M 2.261719 15.808594 " clip-rule="nonzero"/></clipPath><clipPath id="3b0aed8125"><path d="M 17 6 L 24 6 L 24 15 L 17 15 Z M 17 6 " clip-rule="nonzero"/></clipPath><clipPath id="6032beefe0"><path d="M 2.261719 15.808594 L 19.261719 2.203125 L 27.425781 12.402344 L 10.425781 26.007812 Z M 2.261719 15.808594 " clip-rule="nonzero"/></clipPath><clipPath id="d6695dcbb5"><path d="M 2.261719 15.808594 L 19.261719 2.203125 L 27.425781 12.402344 L 10.425781 26.007812 Z M 2.261719 15.808594 " clip-rule="nonzero"/></clipPath><clipPath id="cd354a76a0"><path d="M 17 8 L 22 8 L 22 13 L 17 13 Z M 17 8 " clip-rule="nonzero"/></clipPath><clipPath id="5776fb9c33"><path d="M 2.261719 15.808594 L 19.261719 2.203125 L 27.425781 12.402344 L 10.425781 26.007812 Z M 2.261719 15.808594 " clip-rule="nonzero"/></clipPath><clipPath id="c499e33aed"><path d="M 2.261719 15.808594 L 19.261719 2.203125 L 27.425781 12.402344 L 10.425781 26.007812 Z M 2.261719 15.808594 " clip-rule="nonzero"/></clipPath><clipPath id="afb49eebd0"><path d="M 16 5 L 22 5 L 22 12 L 16 12 Z M 16 5 " clip-rule="nonzero"/></clipPath><clipPath id="6fd79a424d"><path d="M 2.261719 15.808594 L 19.261719 2.203125 L 27.425781 12.402344 L 10.425781 26.007812 Z M 2.261719 15.808594 " clip-rule="nonzero"/></clipPath><clipPath id="f57014c389"><path d="M 2.261719 15.808594 L 19.261719 2.203125 L 27.425781 12.402344 L 10.425781 26.007812 Z M 2.261719 15.808594 " clip-rule="nonzero"/></clipPath><clipPath id="a987ae629d"><path d="M 12 5 L 17 5 L 17 10 L 12 10 Z M 12 5 " clip-rule="nonzero"/></clipPath><clipPath id="9900c1dd31"><path d="M 2.261719 15.808594 L 19.261719 2.203125 L 27.425781 12.402344 L 10.425781 26.007812 Z M 2.261719 15.808594 " clip-rule="nonzero"/></clipPath><clipPath id="40c6d4e7da"><path d="M 2.261719 15.808594 L 19.261719 2.203125 L 27.425781 12.402344 L 10.425781 26.007812 Z M 2.261719 15.808594 " clip-rule="nonzero"/></clipPath><clipPath id="2377141616"><path d="M 14 2 L 20 2 L 20 9 L 14 9 Z M 14 2 " clip-rule="nonzero"/></clipPath><clipPath id="fe9da04e3e"><path d="M 2.261719 15.808594 L 19.261719 2.203125 L 27.425781 12.402344 L 10.425781 26.007812 Z M 2.261719 15.808594 " clip-rule="nonzero"/></clipPath><clipPath id="3bdd9bcb96"><path d="M 2.261719 15.808594 L 19.261719 2.203125 L 27.425781 12.402344 L 10.425781 26.007812 Z M 2.261719 15.808594 " clip-rule="nonzero"/></clipPath><clipPath id="e01c57fa1d"><path d="M 13.089844 7.152344 L 19.480469 2.039062 L 20.542969 3.363281 L 14.152344 8.480469 Z M 13.089844 7.152344 " clip-rule="nonzero"/></clipPath><clipPath id="15e6d649d8"><path d="M 16 7 L 19 7 L 19 11 L 16 11 Z M 16 7 " clip-rule="nonzero"/></clipPath><clipPath id="a05da31144"><path d="M 2.261719 15.808594 L 19.261719 2.203125 L 27.425781 12.402344 L 10.425781 26.007812 Z M 2.261719 15.808594 " clip-rule="nonzero"/></clipPath><clipPath id="6a97d37e76"><path d="M 2.261719 15.808594 L 19.261719 2.203125 L 27.425781 12.402344 L 10.425781 26.007812 Z M 2.261719 15.808594 " clip-rule="nonzero"/></clipPath></defs><g clip-path="url(#f5ad421b56)"><path fill="#ffffff" d="M 0.484375 0 L 29.515625 0 L 29.515625 29.03125 L 0.484375 29.03125 Z M 0.484375 0 " fill-opacity="1" fill-rule="nonzero"/><path fill="url(#a33398b7ed)" d="M 0.484375 0 L 0.484375 29.03125 L 29.515625 29.03125 L 29.515625 0 Z M 0.484375 0 " fill-rule="nonzero"/></g><g clip-path="url(#9ce2ba2b6f)"><g clip-path="url(#057b640621)"><g clip-path="url(#9a4c38e692)"><path fill="#f0f0e0" d="M 16.257812 13.3125 C 16.667969 13.351562 16.96875 13.566406 17.050781 13.628906 C 17.117188 13.433594 17.167969 13.242188 17.203125 13.058594 C 16.964844 12.796875 16.496094 12.648438 16.496094 12.648438 C 16.835938 12.679688 17.097656 12.832031 17.226562 12.917969 C 17.257812 12.734375 17.265625 12.550781 17.257812 12.375 C 17.011719 12.136719 16.585938 12.003906 16.585938 12.003906 C 16.871094 12.03125 17.101562 12.140625 17.246094 12.226562 C 17.210938 11.921875 17.109375 11.632812 16.929688 11.355469 C 16.929688 11.355469 16.425781 10.820312 16.109375 10.71875 C 16.109375 10.71875 16.53125 11.066406 16.09375 12.085938 C 15.65625 13.109375 14.871094 16.398438 15.082031 17.21875 C 15.082031 17.21875 15.398438 17.386719 15.695312 17.449219 C 15.695312 17.449219 15.710938 17.351562 15.75 17.179688 C 15.652344 17.109375 15.507812 17.03125 15.289062 16.953125 C 15.289062 16.953125 15.570312 16.988281 15.777344 17.066406 C 15.8125 16.914062 15.859375 16.722656 15.921875 16.503906 C 15.671875 16.308594 15.328125 16.199219 15.328125 16.199219 C 15.589844 16.222656 15.808594 16.320312 15.953125 16.402344 C 16.003906 16.222656 16.070312 16.027344 16.140625 15.820312 C 15.890625 15.609375 15.519531 15.492188 15.519531 15.492188 C 15.804688 15.519531 16.035156 15.628906 16.179688 15.714844 C 16.246094 15.53125 16.324219 15.339844 16.410156 15.144531 C 16.167969 14.886719 15.707031 14.738281 15.707031 14.738281 C 16.066406 14.773438 16.34375 14.941406 16.460938 15.023438 C 16.492188 14.957031 16.523438 14.886719 16.558594 14.816406 C 16.613281 14.695312 16.671875 14.574219 16.722656 14.457031 C 16.5 14.171875 15.980469 14.007812 15.980469 14.007812 C 16.398438 14.050781 16.703125 14.269531 16.78125 14.328125 C 16.863281 14.136719 16.9375 13.949219 17.003906 13.769531 C 16.78125 13.480469 16.257812 13.3125 16.257812 13.3125 " fill-opacity="1" fill-rule="nonzero"/></g></g></g><g clip-path="url(#5b15baae26)"><g clip-path="url(#a4665c8306)"><g clip-path="url(#a29fc720dd)"><path fill="#f0f0e0" d="M 14.914062 17.820312 C 14.4375 17.792969 14.003906 17.839844 13.609375 17.933594 C 13.609375 18.535156 13.46875 19.863281 12.480469 21.375 C 12.480469 21.375 13.425781 19.511719 13.363281 18.003906 C 11.46875 18.589844 10.628906 20.351562 10.628906 20.351562 C 10.8125 20.847656 10.640625 21.789062 10.640625 21.789062 C 8.808594 23.992188 9.921875 24.855469 9.921875 24.855469 C 9.921875 24.855469 10.226562 23.855469 10.945312 23.960938 C 11.664062 24.066406 12.398438 23.105469 12.398438 23.105469 C 15.773438 19.433594 14.914062 17.820312 14.914062 17.820312 " fill-opacity="1" fill-rule="nonzero"/></g></g></g><g clip-path="url(#1466aec1f2)"><g clip-path="url(#e032789d2e)"><g clip-path="url(#29889a0ea6)"><path fill="#f0f0e0" d="M 13.238281 9.304688 C 13.167969 9.277344 13.085938 9.25 12.992188 9.234375 C 14.789062 10.996094 13.175781 11.785156 13.175781 11.785156 C 14.433594 10.929688 13.277344 9.671875 12.769531 9.207031 C 12.390625 9.183594 11.9375 9.277344 11.667969 9.601562 C 11.667969 9.601562 12.007812 10.015625 12.71875 10.171875 C 13.425781 10.328125 13.527344 11.117188 13.335938 11.378906 C 13.144531 11.636719 12.605469 11.871094 12.152344 11.972656 C 11.699219 12.070312 10.921875 12.3125 11.363281 13.402344 C 11.363281 13.402344 11.550781 13.175781 12.109375 12.980469 C 12.667969 12.789062 13.714844 12.253906 14.011719 12.046875 C 14.304688 11.839844 14.566406 11.40625 14.488281 11.007812 C 14.410156 10.605469 14.105469 9.714844 14.105469 9.714844 C 14.105469 9.714844 13.609375 9.464844 13.238281 9.304688 " fill-opacity="1" fill-rule="nonzero"/></g></g></g><g clip-path="url(#8119b249d7)"><g clip-path="url(#864cfd063e)"><g clip-path="url(#0b39e8acff)"><path fill="#f0f0e0" d="M 11.5625 9.691406 C 11.5625 9.691406 11.953125 10.121094 12.53125 10.257812 C 13.105469 10.390625 13.355469 10.667969 13.292969 11.128906 C 13.226562 11.589844 12.421875 11.699219 11.542969 12.03125 C 11.542969 12.03125 11.273438 11.957031 11.050781 12.003906 C 11.050781 12.003906 10.902344 11.300781 10.890625 11.015625 C 10.875 10.734375 10.957031 10.652344 11.027344 10.5 C 11.09375 10.351562 11.433594 9.75 11.5625 9.691406 " fill-opacity="1" fill-rule="nonzero"/></g></g></g><g clip-path="url(#b2849b7390)"><g clip-path="url(#5a2a10a26d)"><g clip-path="url(#bcdd0c6a11)"><path fill="#f0f0e0" d="M 10.3125 19.671875 C 10.246094 19.648438 10.210938 19.570312 10.234375 19.503906 C 10.613281 18.46875 11.765625 17.816406 11.773438 17.804688 C 11.835938 17.769531 11.917969 17.789062 11.953125 17.851562 C 11.992188 17.917969 11.96875 17.996094 11.90625 18.035156 C 11.90625 18.035156 11.890625 18.042969 11.859375 18.0625 C 11.832031 18.082031 11.785156 18.109375 11.734375 18.148438 C 11.625 18.222656 11.476562 18.332031 11.316406 18.46875 C 11 18.746094 10.644531 19.140625 10.484375 19.59375 C 10.46875 19.628906 10.445312 19.65625 10.410156 19.667969 C 10.382812 19.679688 10.347656 19.683594 10.3125 19.671875 " fill-opacity="1" fill-rule="nonzero"/></g></g></g><g clip-path="url(#d4bab2099c)"><g clip-path="url(#32aea5f0e5)"><g clip-path="url(#5931a2d07f)"><path fill="#f0f0e0" d="M 10.050781 18.527344 C 9.984375 18.5 9.953125 18.421875 9.984375 18.355469 C 10.476562 17.257812 11.726562 16.605469 11.734375 16.597656 C 11.800781 16.5625 11.878906 16.585938 11.914062 16.652344 C 11.949219 16.714844 11.921875 16.796875 11.859375 16.828125 C 11.859375 16.832031 11.84375 16.839844 11.808594 16.859375 C 11.777344 16.875 11.726562 16.90625 11.667969 16.945312 C 11.550781 17.019531 11.386719 17.128906 11.207031 17.273438 C 10.851562 17.558594 10.441406 17.972656 10.226562 18.460938 C 10.210938 18.492188 10.1875 18.515625 10.15625 18.527344 C 10.125 18.542969 10.085938 18.542969 10.050781 18.527344 " fill-opacity="1" fill-rule="nonzero"/></g></g></g><g clip-path="url(#3d3bdefb11)"><g clip-path="url(#7750a1c9c9)"><g clip-path="url(#dfacdaffd3)"><path fill="#f0f0e0" d="M 9.804688 17.410156 C 9.738281 17.378906 9.710938 17.300781 9.738281 17.234375 C 10.222656 16.164062 11.160156 15.691406 11.457031 15.558594 C 11.515625 15.535156 11.550781 15.523438 11.554688 15.519531 C 11.625 15.496094 11.699219 15.535156 11.722656 15.601562 C 11.746094 15.671875 11.710938 15.746094 11.640625 15.769531 C 11.640625 15.769531 11.636719 15.773438 11.625 15.777344 C 11.609375 15.78125 11.589844 15.792969 11.5625 15.800781 C 11.292969 15.917969 10.417969 16.367188 9.980469 17.34375 C 9.96875 17.375 9.941406 17.398438 9.914062 17.410156 C 9.878906 17.425781 9.839844 17.425781 9.804688 17.410156 " fill-opacity="1" fill-rule="nonzero"/></g></g></g><g clip-path="url(#d85bd2a325)"><g clip-path="url(#6344229fd2)"><g clip-path="url(#6e085bb85b)"><path fill="#f0f0e0" d="M 9.433594 16.273438 C 9.367188 16.242188 9.335938 16.164062 9.367188 16.097656 C 9.765625 15.222656 10.613281 14.761719 11.066406 14.5625 C 11.253906 14.480469 11.378906 14.445312 11.382812 14.445312 C 11.453125 14.421875 11.527344 14.460938 11.546875 14.53125 C 11.566406 14.601562 11.527344 14.675781 11.457031 14.695312 C 11.457031 14.695312 11.433594 14.703125 11.382812 14.722656 C 11.332031 14.738281 11.261719 14.765625 11.171875 14.804688 C 10.742188 14.992188 9.957031 15.429688 9.609375 16.207031 C 9.59375 16.238281 9.570312 16.261719 9.539062 16.273438 C 9.507812 16.289062 9.46875 16.289062 9.433594 16.273438 " fill-opacity="1" fill-rule="nonzero"/></g></g></g><g clip-path="url(#5357903878)"><g clip-path="url(#3297dc146e)"><g clip-path="url(#b776837e50)"><path fill="#f0f0e0" d="M 11.238281 18.664062 C 10.738281 19.144531 10.566406 19.53125 10.507812 19.707031 C 10.558594 19.9375 10.585938 20.074219 10.585938 20.074219 C 10.953125 19.3125 11.613281 18.785156 11.613281 18.785156 C 11.402344 18.769531 11.289062 18.730469 11.238281 18.664062 " fill-opacity="1" fill-rule="nonzero"/></g></g></g><g clip-path="url(#10479d9411)"><g clip-path="url(#d0889645c0)"><g clip-path="url(#c91fe77a9a)"><path fill="#f0f0e0" d="M 10.367188 19.085938 C 10.617188 18.648438 10.960938 18.316406 11.238281 18.09375 C 11.238281 18.089844 11.238281 18.085938 11.238281 18.085938 C 11.238281 17.980469 11.226562 17.714844 11.203125 17.367188 C 10.601562 17.867188 10.335938 18.332031 10.238281 18.546875 C 10.285156 18.738281 10.328125 18.921875 10.367188 19.085938 " fill-opacity="1" fill-rule="nonzero"/></g></g></g><g clip-path="url(#4d1eda8ebe)"><g clip-path="url(#eff345b89a)"><g clip-path="url(#acf0eefbe0)"><path fill="#f0f0e0" d="M 10.101562 18 C 10.375 17.515625 10.824219 17.128906 11.167969 16.878906 C 11.152344 16.636719 11.132812 16.378906 11.113281 16.121094 C 10.425781 16.578125 10.09375 17.207031 9.972656 17.496094 C 10.019531 17.667969 10.0625 17.835938 10.101562 18 " fill-opacity="1" fill-rule="nonzero"/></g></g></g><g clip-path="url(#497f22696c)"><g clip-path="url(#c71270b80b)"><g clip-path="url(#3c48bcee62)"><path fill="#f0f0e0" d="M 15.601562 12.132812 C 15.277344 12.992188 14.792969 14.429688 14.792969 15.367188 C 14.792969 15.367188 14.699219 14.375 15.03125 12.8125 C 15.363281 11.25 14.632812 10.175781 14.632812 10.175781 C 14.632812 10.175781 15.535156 10.597656 15.726562 10.757812 C 15.726562 10.757812 15.925781 11.273438 15.601562 12.132812 Z M 14.5625 17.050781 C 13.621094 17.148438 13.042969 17.421875 12.730469 17.535156 C 12.417969 17.644531 12.523438 17.167969 12.523438 17.167969 C 12.609375 16.480469 12.285156 13.957031 12.300781 13.609375 C 12.320312 13.265625 12.496094 13.285156 12.496094 13.285156 C 13.0625 13.039062 14.140625 12.476562 14.140625 12.476562 C 14.140625 12.476562 14.804688 11.902344 14.636719 12.957031 C 14.472656 14.015625 14.5625 17.050781 14.5625 17.050781 Z M 14.285156 9.796875 C 14.285156 9.796875 14.640625 10.765625 14.679688 11.226562 C 14.71875 11.691406 14.265625 12.046875 14.265625 12.046875 C 14.265625 12.046875 13.222656 12.820312 12.097656 13.179688 C 10.972656 13.539062 11.101562 14.347656 11.101562 14.347656 C 11.101562 14.347656 11.105469 14.394531 11.113281 14.472656 C 11.257812 14.414062 11.355469 14.382812 11.371094 14.382812 C 11.445312 14.382812 11.574219 14.375 11.605469 14.519531 C 11.640625 14.667969 11.484375 14.757812 11.484375 14.757812 C 11.367188 14.800781 11.261719 14.84375 11.15625 14.890625 C 11.175781 15.089844 11.199219 15.328125 11.222656 15.589844 C 11.433594 15.480469 11.566406 15.445312 11.566406 15.445312 C 11.566406 15.445312 11.773438 15.441406 11.796875 15.625 C 11.820312 15.804688 11.65625 15.835938 11.65625 15.835938 C 11.515625 15.894531 11.386719 15.957031 11.265625 16.027344 C 11.285156 16.273438 11.304688 16.527344 11.324219 16.769531 C 11.519531 16.636719 11.652344 16.566406 11.652344 16.566406 C 11.652344 16.566406 11.847656 16.425781 11.960938 16.609375 C 12.074219 16.792969 11.855469 16.902344 11.855469 16.902344 C 11.667969 17.015625 11.503906 17.132812 11.355469 17.246094 C 11.371094 17.53125 11.382812 17.785156 11.382812 17.984375 C 11.589844 17.832031 11.738281 17.757812 11.738281 17.757812 C 11.738281 17.757812 11.925781 17.636719 12.03125 17.804688 C 12.136719 17.976562 11.914062 18.113281 11.914062 18.113281 C 11.703125 18.261719 11.523438 18.40625 11.367188 18.542969 C 11.480469 18.707031 11.882812 18.589844 11.882812 18.589844 C 13.273438 17.441406 14.84375 17.59375 14.84375 17.59375 C 14.65625 16.265625 15.320312 13.445312 15.828125 12.105469 C 16.171875 11.203125 15.972656 10.664062 15.972656 10.664062 C 15.507812 10.257812 14.285156 9.796875 14.285156 9.796875 " fill-opacity="1" fill-rule="nonzero"/></g></g></g><g clip-path="url(#da3b1a8705)"><g clip-path="url(#7968533284)"><g clip-path="url(#2a7a8477e2)"><path fill="#f0f0e0" d="M 9.816406 16.914062 C 10.230469 16.261719 10.71875 15.882812 11.074219 15.671875 C 11.050781 15.414062 11.03125 15.171875 11.007812 14.960938 C 10.089844 15.425781 9.746094 16.054688 9.644531 16.300781 C 9.703125 16.507812 9.761719 16.710938 9.816406 16.914062 Z M 11.386719 12.109375 C 10.730469 12.035156 9.871094 12.550781 9.871094 12.550781 C 9.871094 12.550781 9.472656 12.964844 9.054688 13.386719 C 8.640625 13.804688 8.847656 13.957031 8.847656 13.957031 C 9.066406 14.472656 9.28125 15.097656 9.480469 15.75 C 9.839844 15.148438 10.519531 14.742188 10.960938 14.539062 C 10.957031 14.492188 10.949219 14.449219 10.945312 14.414062 C 10.851562 13.808594 11.257812 13.535156 11.257812 13.535156 C 10.777344 12.640625 11.386719 12.109375 11.386719 12.109375 " fill-opacity="1" fill-rule="nonzero"/></g></g></g><g clip-path="url(#cc3c296703)"><g clip-path="url(#ec7e442b6e)"><g clip-path="url(#5997fc525f)"><path fill="#f0f0e0" d="M 14.371094 16.699219 C 14.371094 16.699219 13.164062 16.070312 13.210938 14.878906 C 13.261719 13.683594 12.285156 13.691406 12.285156 13.691406 C 12.285156 13.691406 13.101562 13.585938 13.359375 14.222656 C 13.613281 14.863281 13.238281 15.730469 14.371094 16.699219 " fill-opacity="1" fill-rule="nonzero"/></g></g></g><g clip-path="url(#23b49f6c19)"><g clip-path="url(#aa1cf28878)"><g clip-path="url(#225eeb824c)"><g clip-path="url(#ae7965f1d6)"><path fill="#f0f0e0" d="M 17.121094 11.425781 C 17.121094 11.425781 17.910156 11.972656 17.128906 13.992188 C 16.347656 16.015625 15.996094 16.644531 15.867188 17.734375 C 15.867188 17.734375 15.75 17.714844 15.601562 17.679688 L 15.15625 17.523438 C 15.113281 17.5 15.070312 17.472656 15.042969 17.441406 L 15.171875 17.875 C 15.566406 19.839844 13.410156 22.257812 13.410156 22.257812 L 13.40625 22.261719 C 13.234375 22.480469 12.761719 23.066406 12.238281 23.625 C 11.582031 24.324219 11.375 24 10.59375 24.339844 C 9.8125 24.675781 10.242188 25.515625 10.242188 25.515625 C 12.9375 24.894531 14.535156 22.527344 14.535156 22.527344 L 14.125 22.351562 C 14.285156 22.183594 14.433594 22.015625 14.566406 21.851562 L 15.03125 22.011719 L 15.640625 21.148438 L 15.164062 21.007812 C 15.25 20.871094 15.324219 20.734375 15.390625 20.605469 L 15.851562 20.746094 L 16.164062 19.914062 L 15.730469 19.78125 C 15.769531 19.660156 15.800781 19.542969 15.824219 19.433594 L 16.222656 19.550781 L 16.316406 18.871094 L 15.921875 18.726562 C 15.925781 18.574219 15.921875 18.4375 15.914062 18.316406 L 16.253906 18.457031 C 16.253906 18.457031 16.210938 17.585938 16.738281 16.636719 C 17.261719 15.6875 18.582031 13.027344 18.171875 12.074219 C 18.171875 12.074219 17.523438 11.46875 17.121094 11.425781 " fill-opacity="1" fill-rule="nonzero"/></g></g></g></g><g clip-path="url(#5a940bf93b)"><g clip-path="url(#4ed41e994d)"><g clip-path="url(#bea4334175)"><path fill="#f0f0e0" d="M 15.851562 20.746094 L 23.613281 10.671875 L 16.050781 19.949219 Z M 15.851562 20.746094 " fill-opacity="1" fill-rule="nonzero"/></g></g></g><g clip-path="url(#8fd7afc783)"><g clip-path="url(#95e9386cdc)"><g clip-path="url(#5d4516c6dc)"><path fill="#f0f0e0" d="M 16.210938 19.519531 L 20.605469 13.800781 L 16.316406 18.871094 Z M 16.210938 19.519531 " fill-opacity="1" fill-rule="nonzero"/></g></g></g><g clip-path="url(#3b0aed8125)"><g clip-path="url(#6032beefe0)"><g clip-path="url(#d6695dcbb5)"><path fill="#f0f0e0" d="M 17.789062 14.1875 L 23.203125 6.964844 L 17.933594 13.402344 Z M 17.789062 14.1875 " fill-opacity="1" fill-rule="nonzero"/></g></g></g><g clip-path="url(#cd354a76a0)"><g clip-path="url(#5776fb9c33)"><g clip-path="url(#c499e33aed)"><path fill="#f0f0e0" d="M 18.109375 12.320312 L 21.1875 8.308594 L 17.933594 12.054688 Z M 18.109375 12.320312 " fill-opacity="1" fill-rule="nonzero"/></g></g></g><g clip-path="url(#afb49eebd0)"><g clip-path="url(#6fd79a424d)"><g clip-path="url(#f57014c389)"><path fill="#f0f0e0" d="M 16.441406 11.03125 L 21.226562 5.253906 L 16.71875 11.210938 Z M 16.441406 11.03125 " fill-opacity="1" fill-rule="nonzero"/></g></g></g><g clip-path="url(#a987ae629d)"><g clip-path="url(#9900c1dd31)"><g clip-path="url(#40c6d4e7da)"><path fill="#f0f0e0" d="M 12.144531 9.359375 L 16.0625 5.015625 L 12.636719 9.304688 Z M 12.144531 9.359375 " fill-opacity="1" fill-rule="nonzero"/></g></g></g><g clip-path="url(#2377141616)"><g clip-path="url(#fe9da04e3e)"><g clip-path="url(#3bdd9bcb96)"><g clip-path="url(#e01c57fa1d)"><path fill="#f0f0e0" d="M 14.164062 8.460938 C 14.164062 8.460938 16.859375 4.824219 19.480469 2.039062 C 19.480469 2.039062 16.648438 5.882812 14.164062 8.460938 " fill-opacity="1" fill-rule="nonzero"/></g></g></g></g><g clip-path="url(#15e6d649d8)"><g clip-path="url(#a05da31144)"><g clip-path="url(#6a97d37e76)"><path fill="#f0f0e0" d="M 16.328125 10.046875 C 16.328125 10.046875 17.023438 8.820312 18.398438 7.515625 C 18.398438 7.515625 17.425781 8.902344 16.328125 10.046875 " fill-opacity="1" fill-rule="nonzero"/></g></g></g></svg>