<svg xmlns="http://www.w3.org/2000/svg" xmlns:xlink="http://www.w3.org/1999/xlink" width="128" zoomAndPan="magnify" viewBox="0 0 96 95.999999" height="128" preserveAspectRatio="xMidYMid meet" version="1.0"><defs><linearGradient x1="-0" gradientTransform="matrix(0.75, 0, 0, 0.75, 0.0000005, 0.000002)" y1="-0" x2="127.999995" gradientUnits="userSpaceOnUse" y2="127.999995" id="3234bc22da"><stop stop-opacity="1" stop-color="rgb(100%, 53.29895%, 39.99939%)" offset="0"/><stop stop-opacity="1" stop-color="rgb(99.850464%, 53.089905%, 39.96582%)" offset="0.00390625"/><stop stop-opacity="1" stop-color="rgb(99.702454%, 52.882385%, 39.932251%)" offset="0.0078125"/><stop stop-opacity="1" stop-color="rgb(99.552917%, 52.67334%, 39.898682%)" offset="0.0117188"/><stop stop-opacity="1" stop-color="rgb(99.404907%, 52.46582%, 39.865112%)" offset="0.015625"/><stop stop-opacity="1" stop-color="rgb(99.256897%, 52.258301%, 39.831543%)" offset="0.0195312"/><stop stop-opacity="1" stop-color="rgb(99.108887%, 52.050781%, 39.797974%)" offset="0.0234375"/><stop stop-opacity="1" stop-color="rgb(98.959351%, 51.841736%, 39.764404%)" offset="0.0273438"/><stop stop-opacity="1" stop-color="rgb(98.81134%, 51.634216%, 39.730835%)" offset="0.03125"/><stop stop-opacity="1" stop-color="rgb(98.66333%, 51.425171%, 39.697266%)" offset="0.0351562"/><stop stop-opacity="1" stop-color="rgb(98.51532%, 51.217651%, 39.663696%)" offset="0.0390625"/><stop stop-opacity="1" stop-color="rgb(98.365784%, 51.008606%, 39.630127%)" offset="0.0429688"/><stop stop-opacity="1" stop-color="rgb(98.217773%, 50.801086%, 39.596558%)" offset="0.046875"/><stop stop-opacity="1" stop-color="rgb(98.069763%, 50.592041%, 39.562988%)" offset="0.0507812"/><stop stop-opacity="1" stop-color="rgb(97.921753%, 50.384521%, 39.529419%)" offset="0.0546875"/><stop stop-opacity="1" stop-color="rgb(97.772217%, 50.175476%, 39.49585%)" offset="0.0585938"/><stop stop-opacity="1" stop-color="rgb(97.624207%, 49.967957%, 39.46228%)" offset="0.0625"/><stop stop-opacity="1" stop-color="rgb(97.47467%, 49.758911%, 39.428711%)" offset="0.0664062"/><stop stop-opacity="1" stop-color="rgb(97.32666%, 49.551392%, 39.395142%)" offset="0.0703125"/><stop stop-opacity="1" stop-color="rgb(97.17865%, 49.342346%, 39.361572%)" offset="0.0742188"/><stop stop-opacity="1" stop-color="rgb(97.03064%, 49.134827%, 39.328003%)" offset="0.078125"/><stop stop-opacity="1" stop-color="rgb(96.881104%, 48.925781%, 39.294434%)" offset="0.0820312"/><stop stop-opacity="1" stop-color="rgb(96.733093%, 48.718262%, 39.260864%)" offset="0.0859375"/><stop stop-opacity="1" stop-color="rgb(96.585083%, 48.509216%, 39.227295%)" offset="0.0898438"/><stop stop-opacity="1" stop-color="rgb(96.437073%, 48.301697%, 39.193726%)" offset="0.09375"/><stop stop-opacity="1" stop-color="rgb(96.287537%, 48.094177%, 39.15863%)" offset="0.0976562"/><stop stop-opacity="1" stop-color="rgb(96.139526%, 47.886658%, 39.125061%)" offset="0.101562"/><stop stop-opacity="1" stop-color="rgb(95.991516%, 47.677612%, 39.091492%)" offset="0.105469"/><stop stop-opacity="1" stop-color="rgb(95.843506%, 47.470093%, 39.057922%)" offset="0.109375"/><stop stop-opacity="1" stop-color="rgb(95.69397%, 47.261047%, 39.024353%)" offset="0.113281"/><stop stop-opacity="1" stop-color="rgb(95.545959%, 47.053528%, 38.990784%)" offset="0.117188"/><stop stop-opacity="1" stop-color="rgb(95.397949%, 46.844482%, 38.957214%)" offset="0.121094"/><stop stop-opacity="1" stop-color="rgb(95.249939%, 46.636963%, 38.923645%)" offset="0.125"/><stop stop-opacity="1" stop-color="rgb(95.100403%, 46.427917%, 38.890076%)" offset="0.128906"/><stop stop-opacity="1" stop-color="rgb(94.952393%, 46.220398%, 38.856506%)" offset="0.132812"/><stop stop-opacity="1" stop-color="rgb(94.802856%, 46.011353%, 38.822937%)" offset="0.136719"/><stop stop-opacity="1" stop-color="rgb(94.654846%, 45.803833%, 38.789368%)" offset="0.140625"/><stop stop-opacity="1" stop-color="rgb(94.506836%, 45.594788%, 38.755798%)" offset="0.144531"/><stop stop-opacity="1" stop-color="rgb(94.358826%, 45.387268%, 38.722229%)" offset="0.148438"/><stop stop-opacity="1" stop-color="rgb(94.20929%, 45.178223%, 38.68866%)" offset="0.152344"/><stop stop-opacity="1" stop-color="rgb(94.061279%, 44.970703%, 38.65509%)" offset="0.15625"/><stop stop-opacity="1" stop-color="rgb(93.913269%, 44.761658%, 38.621521%)" offset="0.160156"/><stop stop-opacity="1" stop-color="rgb(93.765259%, 44.554138%, 38.587952%)" offset="0.164062"/><stop stop-opacity="1" stop-color="rgb(93.615723%, 44.345093%, 38.554382%)" offset="0.167969"/><stop stop-opacity="1" stop-color="rgb(93.467712%, 44.137573%, 38.520813%)" offset="0.171875"/><stop stop-opacity="1" stop-color="rgb(93.319702%, 43.930054%, 38.487244%)" offset="0.175781"/><stop stop-opacity="1" stop-color="rgb(93.171692%, 43.722534%, 38.453674%)" offset="0.179688"/><stop stop-opacity="1" stop-color="rgb(93.022156%, 43.513489%, 38.420105%)" offset="0.183594"/><stop stop-opacity="1" stop-color="rgb(92.874146%, 43.305969%, 38.386536%)" offset="0.1875"/><stop stop-opacity="1" stop-color="rgb(92.726135%, 43.096924%, 38.352966%)" offset="0.191406"/><stop stop-opacity="1" stop-color="rgb(92.578125%, 42.889404%, 38.319397%)" offset="0.195312"/><stop stop-opacity="1" stop-color="rgb(92.428589%, 42.680359%, 38.285828%)" offset="0.199219"/><stop stop-opacity="1" stop-color="rgb(92.280579%, 42.472839%, 38.252258%)" offset="0.203125"/><stop stop-opacity="1" stop-color="rgb(92.131042%, 42.263794%, 38.218689%)" offset="0.207031"/><stop stop-opacity="1" stop-color="rgb(91.983032%, 42.056274%, 38.18512%)" offset="0.210938"/><stop stop-opacity="1" stop-color="rgb(91.835022%, 41.847229%, 38.15155%)" offset="0.214844"/><stop stop-opacity="1" stop-color="rgb(91.687012%, 41.639709%, 38.117981%)" offset="0.21875"/><stop stop-opacity="1" stop-color="rgb(91.537476%, 41.430664%, 38.084412%)" offset="0.222656"/><stop stop-opacity="1" stop-color="rgb(91.389465%, 41.223145%, 38.050842%)" offset="0.226562"/><stop stop-opacity="1" stop-color="rgb(91.241455%, 41.014099%, 38.017273%)" offset="0.230469"/><stop stop-opacity="1" stop-color="rgb(91.093445%, 40.80658%, 37.983704%)" offset="0.234375"/><stop stop-opacity="1" stop-color="rgb(90.943909%, 40.597534%, 37.950134%)" offset="0.238281"/><stop stop-opacity="1" stop-color="rgb(90.795898%, 40.390015%, 37.916565%)" offset="0.242188"/><stop stop-opacity="1" stop-color="rgb(90.647888%, 40.182495%, 37.882996%)" offset="0.246094"/><stop stop-opacity="1" stop-color="rgb(90.499878%, 39.974976%, 37.849426%)" offset="0.25"/><stop stop-opacity="1" stop-color="rgb(90.350342%, 39.76593%, 37.815857%)" offset="0.253906"/><stop stop-opacity="1" stop-color="rgb(90.202332%, 39.558411%, 37.782288%)" offset="0.257812"/><stop stop-opacity="1" stop-color="rgb(90.052795%, 39.349365%, 37.748718%)" offset="0.261719"/><stop stop-opacity="1" stop-color="rgb(89.904785%, 39.141846%, 37.715149%)" offset="0.265625"/><stop stop-opacity="1" stop-color="rgb(89.756775%, 38.9328%, 37.68158%)" offset="0.269531"/><stop stop-opacity="1" stop-color="rgb(89.608765%, 38.725281%, 37.64801%)" offset="0.273438"/><stop stop-opacity="1" stop-color="rgb(89.459229%, 38.516235%, 37.614441%)" offset="0.277344"/><stop stop-opacity="1" stop-color="rgb(89.311218%, 38.308716%, 37.580872%)" offset="0.28125"/><stop stop-opacity="1" stop-color="rgb(89.163208%, 38.09967%, 37.547302%)" offset="0.285156"/><stop stop-opacity="1" stop-color="rgb(89.015198%, 37.892151%, 37.513733%)" offset="0.289062"/><stop stop-opacity="1" stop-color="rgb(88.865662%, 37.683105%, 37.480164%)" offset="0.292969"/><stop stop-opacity="1" stop-color="rgb(88.717651%, 37.475586%, 37.446594%)" offset="0.296875"/><stop stop-opacity="1" stop-color="rgb(88.569641%, 37.266541%, 37.413025%)" offset="0.300781"/><stop stop-opacity="1" stop-color="rgb(88.421631%, 37.059021%, 37.379456%)" offset="0.304688"/><stop stop-opacity="1" stop-color="rgb(88.272095%, 36.849976%, 37.345886%)" offset="0.308594"/><stop stop-opacity="1" stop-color="rgb(88.124084%, 36.642456%, 37.312317%)" offset="0.3125"/><stop stop-opacity="1" stop-color="rgb(87.976074%, 36.433411%, 37.278748%)" offset="0.316406"/><stop stop-opacity="1" stop-color="rgb(87.828064%, 36.225891%, 37.245178%)" offset="0.320312"/><stop stop-opacity="1" stop-color="rgb(87.678528%, 36.018372%, 37.211609%)" offset="0.324219"/><stop stop-opacity="1" stop-color="rgb(87.530518%, 35.810852%, 37.17804%)" offset="0.328125"/><stop stop-opacity="1" stop-color="rgb(87.380981%, 35.601807%, 37.14447%)" offset="0.332031"/><stop stop-opacity="1" stop-color="rgb(87.232971%, 35.394287%, 37.110901%)" offset="0.335938"/><stop stop-opacity="1" stop-color="rgb(87.084961%, 35.185242%, 37.075806%)" offset="0.339844"/><stop stop-opacity="1" stop-color="rgb(86.936951%, 34.977722%, 37.042236%)" offset="0.34375"/><stop stop-opacity="1" stop-color="rgb(86.787415%, 34.768677%, 37.008667%)" offset="0.347656"/><stop stop-opacity="1" stop-color="rgb(86.639404%, 34.561157%, 36.975098%)" offset="0.351562"/><stop stop-opacity="1" stop-color="rgb(86.491394%, 34.352112%, 36.941528%)" offset="0.355469"/><stop stop-opacity="1" stop-color="rgb(86.343384%, 34.144592%, 36.907959%)" offset="0.359375"/><stop stop-opacity="1" stop-color="rgb(86.193848%, 33.935547%, 36.87439%)" offset="0.363281"/><stop stop-opacity="1" stop-color="rgb(86.045837%, 33.728027%, 36.84082%)" offset="0.367188"/><stop stop-opacity="1" stop-color="rgb(85.897827%, 33.518982%, 36.807251%)" offset="0.371094"/><stop stop-opacity="1" stop-color="rgb(85.749817%, 33.311462%, 36.773682%)" offset="0.375"/><stop stop-opacity="1" stop-color="rgb(85.600281%, 33.102417%, 36.740112%)" offset="0.378906"/><stop stop-opacity="1" stop-color="rgb(85.452271%, 32.894897%, 36.706543%)" offset="0.382812"/><stop stop-opacity="1" stop-color="rgb(85.30426%, 32.685852%, 36.672974%)" offset="0.386719"/><stop stop-opacity="1" stop-color="rgb(85.15625%, 32.478333%, 36.639404%)" offset="0.390625"/><stop stop-opacity="1" stop-color="rgb(85.006714%, 32.269287%, 36.605835%)" offset="0.394531"/><stop stop-opacity="1" stop-color="rgb(84.858704%, 32.061768%, 36.572266%)" offset="0.398438"/><stop stop-opacity="1" stop-color="rgb(84.709167%, 31.854248%, 36.538696%)" offset="0.402344"/><stop stop-opacity="1" stop-color="rgb(84.561157%, 31.646729%, 36.505127%)" offset="0.40625"/><stop stop-opacity="1" stop-color="rgb(84.413147%, 31.437683%, 36.471558%)" offset="0.410156"/><stop stop-opacity="1" stop-color="rgb(84.265137%, 31.230164%, 36.437988%)" offset="0.414062"/><stop stop-opacity="1" stop-color="rgb(84.115601%, 31.021118%, 36.404419%)" offset="0.417969"/><stop stop-opacity="1" stop-color="rgb(83.96759%, 30.813599%, 36.37085%)" offset="0.421875"/><stop stop-opacity="1" stop-color="rgb(83.81958%, 30.604553%, 36.33728%)" offset="0.425781"/><stop stop-opacity="1" stop-color="rgb(83.67157%, 30.397034%, 36.303711%)" offset="0.429688"/><stop stop-opacity="1" stop-color="rgb(83.522034%, 30.187988%, 36.270142%)" offset="0.433594"/><stop stop-opacity="1" stop-color="rgb(83.374023%, 29.980469%, 36.236572%)" offset="0.4375"/><stop stop-opacity="1" stop-color="rgb(83.226013%, 29.771423%, 36.203003%)" offset="0.441406"/><stop stop-opacity="1" stop-color="rgb(83.078003%, 29.563904%, 36.169434%)" offset="0.445312"/><stop stop-opacity="1" stop-color="rgb(82.928467%, 29.354858%, 36.135864%)" offset="0.449219"/><stop stop-opacity="1" stop-color="rgb(82.780457%, 29.147339%, 36.102295%)" offset="0.453125"/><stop stop-opacity="1" stop-color="rgb(82.63092%, 28.938293%, 36.068726%)" offset="0.457031"/><stop stop-opacity="1" stop-color="rgb(82.48291%, 28.730774%, 36.035156%)" offset="0.460938"/><stop stop-opacity="1" stop-color="rgb(82.3349%, 28.521729%, 36.001587%)" offset="0.464844"/><stop stop-opacity="1" stop-color="rgb(82.18689%, 28.314209%, 35.968018%)" offset="0.46875"/><stop stop-opacity="1" stop-color="rgb(82.037354%, 28.106689%, 35.934448%)" offset="0.472656"/><stop stop-opacity="1" stop-color="rgb(81.889343%, 27.89917%, 35.900879%)" offset="0.476562"/><stop stop-opacity="1" stop-color="rgb(81.741333%, 27.690125%, 35.86731%)" offset="0.480469"/><stop stop-opacity="1" stop-color="rgb(81.593323%, 27.482605%, 35.83374%)" offset="0.484375"/><stop stop-opacity="1" stop-color="rgb(81.443787%, 27.27356%, 35.800171%)" offset="0.488281"/><stop stop-opacity="1" stop-color="rgb(81.295776%, 27.06604%, 35.766602%)" offset="0.492188"/><stop stop-opacity="1" stop-color="rgb(81.147766%, 26.856995%, 35.733032%)" offset="0.496094"/><stop stop-opacity="1" stop-color="rgb(80.999756%, 26.649475%, 35.699463%)" offset="0.5"/><stop stop-opacity="1" stop-color="rgb(80.85022%, 26.44043%, 35.665894%)" offset="0.503906"/><stop stop-opacity="1" stop-color="rgb(80.702209%, 26.23291%, 35.632324%)" offset="0.507812"/><stop stop-opacity="1" stop-color="rgb(80.554199%, 26.023865%, 35.598755%)" offset="0.511719"/><stop stop-opacity="1" stop-color="rgb(80.406189%, 25.816345%, 35.565186%)" offset="0.515625"/><stop stop-opacity="1" stop-color="rgb(80.256653%, 25.6073%, 35.531616%)" offset="0.519531"/><stop stop-opacity="1" stop-color="rgb(80.108643%, 25.39978%, 35.498047%)" offset="0.523438"/><stop stop-opacity="1" stop-color="rgb(79.959106%, 25.190735%, 35.464478%)" offset="0.527344"/><stop stop-opacity="1" stop-color="rgb(79.811096%, 24.983215%, 35.430908%)" offset="0.53125"/><stop stop-opacity="1" stop-color="rgb(79.663086%, 24.77417%, 35.397339%)" offset="0.535156"/><stop stop-opacity="1" stop-color="rgb(79.515076%, 24.56665%, 35.36377%)" offset="0.539062"/><stop stop-opacity="1" stop-color="rgb(79.36554%, 24.357605%, 35.3302%)" offset="0.542969"/><stop stop-opacity="1" stop-color="rgb(79.217529%, 24.150085%, 35.296631%)" offset="0.546875"/><stop stop-opacity="1" stop-color="rgb(79.069519%, 23.942566%, 35.263062%)" offset="0.550781"/><stop stop-opacity="1" stop-color="rgb(78.921509%, 23.735046%, 35.229492%)" offset="0.554688"/><stop stop-opacity="1" stop-color="rgb(78.771973%, 23.526001%, 35.195923%)" offset="0.558594"/><stop stop-opacity="1" stop-color="rgb(78.623962%, 23.318481%, 35.162354%)" offset="0.5625"/><stop stop-opacity="1" stop-color="rgb(78.475952%, 23.109436%, 35.128784%)" offset="0.566406"/><stop stop-opacity="1" stop-color="rgb(78.327942%, 22.901917%, 35.095215%)" offset="0.570312"/><stop stop-opacity="1" stop-color="rgb(78.178406%, 22.692871%, 35.061646%)" offset="0.574219"/><stop stop-opacity="1" stop-color="rgb(78.030396%, 22.485352%, 35.028076%)" offset="0.578125"/><stop stop-opacity="1" stop-color="rgb(77.882385%, 22.276306%, 34.994507%)" offset="0.582031"/><stop stop-opacity="1" stop-color="rgb(77.734375%, 22.068787%, 34.960938%)" offset="0.585938"/><stop stop-opacity="1" stop-color="rgb(77.584839%, 21.859741%, 34.925842%)" offset="0.589844"/><stop stop-opacity="1" stop-color="rgb(77.436829%, 21.652222%, 34.892273%)" offset="0.59375"/><stop stop-opacity="1" stop-color="rgb(77.287292%, 21.443176%, 34.858704%)" offset="0.597656"/><stop stop-opacity="1" stop-color="rgb(77.139282%, 21.235657%, 34.825134%)" offset="0.601562"/><stop stop-opacity="1" stop-color="rgb(76.991272%, 21.026611%, 34.791565%)" offset="0.605469"/><stop stop-opacity="1" stop-color="rgb(76.843262%, 20.819092%, 34.757996%)" offset="0.609375"/><stop stop-opacity="1" stop-color="rgb(76.693726%, 20.610046%, 34.724426%)" offset="0.613281"/><stop stop-opacity="1" stop-color="rgb(76.545715%, 20.402527%, 34.690857%)" offset="0.617188"/><stop stop-opacity="1" stop-color="rgb(76.397705%, 20.195007%, 34.657288%)" offset="0.621094"/><stop stop-opacity="1" stop-color="rgb(76.249695%, 19.987488%, 34.623718%)" offset="0.625"/><stop stop-opacity="1" stop-color="rgb(76.100159%, 19.778442%, 34.590149%)" offset="0.628906"/><stop stop-opacity="1" stop-color="rgb(75.952148%, 19.570923%, 34.55658%)" offset="0.632812"/><stop stop-opacity="1" stop-color="rgb(75.804138%, 19.361877%, 34.52301%)" offset="0.636719"/><stop stop-opacity="1" stop-color="rgb(75.656128%, 19.154358%, 34.489441%)" offset="0.640625"/><stop stop-opacity="1" stop-color="rgb(75.506592%, 18.945312%, 34.455872%)" offset="0.644531"/><stop stop-opacity="1" stop-color="rgb(75.358582%, 18.737793%, 34.422302%)" offset="0.648438"/><stop stop-opacity="1" stop-color="rgb(75.209045%, 18.528748%, 34.388733%)" offset="0.652344"/><stop stop-opacity="1" stop-color="rgb(75.061035%, 18.321228%, 34.355164%)" offset="0.65625"/><stop stop-opacity="1" stop-color="rgb(74.913025%, 18.112183%, 34.321594%)" offset="0.660156"/><stop stop-opacity="1" stop-color="rgb(74.765015%, 17.904663%, 34.288025%)" offset="0.664062"/><stop stop-opacity="1" stop-color="rgb(74.615479%, 17.695618%, 34.254456%)" offset="0.667969"/><stop stop-opacity="1" stop-color="rgb(74.467468%, 17.488098%, 34.220886%)" offset="0.671875"/><stop stop-opacity="1" stop-color="rgb(74.319458%, 17.279053%, 34.187317%)" offset="0.675781"/><stop stop-opacity="1" stop-color="rgb(74.171448%, 17.071533%, 34.153748%)" offset="0.679688"/><stop stop-opacity="1" stop-color="rgb(74.021912%, 16.862488%, 34.120178%)" offset="0.683594"/><stop stop-opacity="1" stop-color="rgb(73.873901%, 16.654968%, 34.086609%)" offset="0.6875"/><stop stop-opacity="1" stop-color="rgb(73.725891%, 16.445923%, 34.05304%)" offset="0.691406"/><stop stop-opacity="1" stop-color="rgb(73.577881%, 16.238403%, 34.01947%)" offset="0.695312"/><stop stop-opacity="1" stop-color="rgb(73.428345%, 16.030884%, 33.985901%)" offset="0.699219"/><stop stop-opacity="1" stop-color="rgb(73.280334%, 15.823364%, 33.952332%)" offset="0.703125"/><stop stop-opacity="1" stop-color="rgb(73.132324%, 15.614319%, 33.918762%)" offset="0.707031"/><stop stop-opacity="1" stop-color="rgb(72.984314%, 15.406799%, 33.885193%)" offset="0.710938"/><stop stop-opacity="1" stop-color="rgb(72.834778%, 15.197754%, 33.851624%)" offset="0.714844"/><stop stop-opacity="1" stop-color="rgb(72.686768%, 14.990234%, 33.818054%)" offset="0.71875"/><stop stop-opacity="1" stop-color="rgb(72.537231%, 14.781189%, 33.784485%)" offset="0.722656"/><stop stop-opacity="1" stop-color="rgb(72.389221%, 14.573669%, 33.750916%)" offset="0.726562"/><stop stop-opacity="1" stop-color="rgb(72.241211%, 14.364624%, 33.717346%)" offset="0.730469"/><stop stop-opacity="1" stop-color="rgb(72.093201%, 14.157104%, 33.683777%)" offset="0.734375"/><stop stop-opacity="1" stop-color="rgb(71.943665%, 13.948059%, 33.650208%)" offset="0.738281"/><stop stop-opacity="1" stop-color="rgb(71.795654%, 13.74054%, 33.616638%)" offset="0.742188"/><stop stop-opacity="1" stop-color="rgb(71.647644%, 13.531494%, 33.583069%)" offset="0.746094"/><stop stop-opacity="1" stop-color="rgb(71.499634%, 13.323975%, 33.5495%)" offset="0.75"/><stop stop-opacity="1" stop-color="rgb(71.350098%, 13.114929%, 33.51593%)" offset="0.753906"/><stop stop-opacity="1" stop-color="rgb(71.202087%, 12.90741%, 33.482361%)" offset="0.757812"/><stop stop-opacity="1" stop-color="rgb(71.054077%, 12.698364%, 33.448792%)" offset="0.761719"/><stop stop-opacity="1" stop-color="rgb(70.906067%, 12.490845%, 33.415222%)" offset="0.765625"/><stop stop-opacity="1" stop-color="rgb(70.756531%, 12.281799%, 33.381653%)" offset="0.769531"/><stop stop-opacity="1" stop-color="rgb(70.608521%, 12.07428%, 33.348083%)" offset="0.773438"/><stop stop-opacity="1" stop-color="rgb(70.46051%, 11.86676%, 33.314514%)" offset="0.777344"/><stop stop-opacity="1" stop-color="rgb(70.3125%, 11.659241%, 33.280945%)" offset="0.78125"/><stop stop-opacity="1" stop-color="rgb(70.162964%, 11.450195%, 33.247375%)" offset="0.785156"/><stop stop-opacity="1" stop-color="rgb(70.014954%, 11.242676%, 33.213806%)" offset="0.789062"/><stop stop-opacity="1" stop-color="rgb(69.865417%, 11.03363%, 33.180237%)" offset="0.792969"/><stop stop-opacity="1" stop-color="rgb(69.717407%, 10.826111%, 33.146667%)" offset="0.796875"/><stop stop-opacity="1" stop-color="rgb(69.569397%, 10.617065%, 33.113098%)" offset="0.800781"/><stop stop-opacity="1" stop-color="rgb(69.421387%, 10.409546%, 33.079529%)" offset="0.804688"/><stop stop-opacity="1" stop-color="rgb(69.271851%, 10.2005%, 33.045959%)" offset="0.808594"/><stop stop-opacity="1" stop-color="rgb(69.12384%, 9.992981%, 33.01239%)" offset="0.8125"/><stop stop-opacity="1" stop-color="rgb(68.97583%, 9.783936%, 32.978821%)" offset="0.816406"/><stop stop-opacity="1" stop-color="rgb(68.82782%, 9.576416%, 32.945251%)" offset="0.820312"/><stop stop-opacity="1" stop-color="rgb(68.678284%, 9.367371%, 32.911682%)" offset="0.824219"/><stop stop-opacity="1" stop-color="rgb(68.530273%, 9.159851%, 32.878113%)" offset="0.828125"/><stop stop-opacity="1" stop-color="rgb(68.382263%, 8.950806%, 32.843018%)" offset="0.832031"/><stop stop-opacity="1" stop-color="rgb(68.234253%, 8.743286%, 32.809448%)" offset="0.835938"/><stop stop-opacity="1" stop-color="rgb(68.084717%, 8.534241%, 32.775879%)" offset="0.839844"/><stop stop-opacity="1" stop-color="rgb(67.936707%, 8.326721%, 32.74231%)" offset="0.84375"/><stop stop-opacity="1" stop-color="rgb(67.78717%, 8.119202%, 32.70874%)" offset="0.847656"/><stop stop-opacity="1" stop-color="rgb(67.63916%, 7.911682%, 32.675171%)" offset="0.851562"/><stop stop-opacity="1" stop-color="rgb(67.49115%, 7.702637%, 32.641602%)" offset="0.855469"/><stop stop-opacity="1" stop-color="rgb(67.34314%, 7.495117%, 32.608032%)" offset="0.859375"/><stop stop-opacity="1" stop-color="rgb(67.193604%, 7.286072%, 32.574463%)" offset="0.863281"/><stop stop-opacity="1" stop-color="rgb(67.045593%, 7.078552%, 32.540894%)" offset="0.867188"/><stop stop-opacity="1" stop-color="rgb(66.897583%, 6.869507%, 32.507324%)" offset="0.871094"/><stop stop-opacity="1" stop-color="rgb(66.749573%, 6.661987%, 32.473755%)" offset="0.875"/><stop stop-opacity="1" stop-color="rgb(66.600037%, 6.452942%, 32.440186%)" offset="0.878906"/><stop stop-opacity="1" stop-color="rgb(66.452026%, 6.245422%, 32.406616%)" offset="0.882812"/><stop stop-opacity="1" stop-color="rgb(66.304016%, 6.036377%, 32.373047%)" offset="0.886719"/><stop stop-opacity="1" stop-color="rgb(66.156006%, 5.828857%, 32.339478%)" offset="0.890625"/><stop stop-opacity="1" stop-color="rgb(66.00647%, 5.619812%, 32.305908%)" offset="0.894531"/><stop stop-opacity="1" stop-color="rgb(65.858459%, 5.412292%, 32.272339%)" offset="0.898438"/><stop stop-opacity="1" stop-color="rgb(65.710449%, 5.203247%, 32.23877%)" offset="0.902344"/><stop stop-opacity="1" stop-color="rgb(65.562439%, 4.995728%, 32.2052%)" offset="0.90625"/><stop stop-opacity="1" stop-color="rgb(65.412903%, 4.786682%, 32.171631%)" offset="0.910156"/><stop stop-opacity="1" stop-color="rgb(65.264893%, 4.579163%, 32.138062%)" offset="0.914062"/><stop stop-opacity="1" stop-color="rgb(65.115356%, 4.370117%, 32.104492%)" offset="0.917969"/><stop stop-opacity="1" stop-color="rgb(64.967346%, 4.162598%, 32.070923%)" offset="0.921875"/><stop stop-opacity="1" stop-color="rgb(64.819336%, 3.955078%, 32.037354%)" offset="0.925781"/><stop stop-opacity="1" stop-color="rgb(64.671326%, 3.747559%, 32.003784%)" offset="0.929688"/><stop stop-opacity="1" stop-color="rgb(64.52179%, 3.538513%, 31.970215%)" offset="0.933594"/><stop stop-opacity="1" stop-color="rgb(64.373779%, 3.330994%, 31.936646%)" offset="0.9375"/><stop stop-opacity="1" stop-color="rgb(64.225769%, 3.121948%, 31.903076%)" offset="0.941406"/><stop stop-opacity="1" stop-color="rgb(64.077759%, 2.914429%, 31.869507%)" offset="0.945312"/><stop stop-opacity="1" stop-color="rgb(63.928223%, 2.705383%, 31.835938%)" offset="0.949219"/><stop stop-opacity="1" stop-color="rgb(63.780212%, 2.497864%, 31.802368%)" offset="0.953125"/><stop stop-opacity="1" stop-color="rgb(63.632202%, 2.288818%, 31.768799%)" offset="0.957031"/><stop stop-opacity="1" stop-color="rgb(63.484192%, 2.081299%, 31.735229%)" offset="0.960938"/><stop stop-opacity="1" stop-color="rgb(63.334656%, 1.872253%, 31.70166%)" offset="0.964844"/><stop stop-opacity="1" stop-color="rgb(63.186646%, 1.664734%, 31.668091%)" offset="0.96875"/><stop stop-opacity="1" stop-color="rgb(63.038635%, 1.455688%, 31.634521%)" offset="0.972656"/><stop stop-opacity="1" stop-color="rgb(62.890625%, 1.248169%, 31.600952%)" offset="0.976562"/><stop stop-opacity="1" stop-color="rgb(62.741089%, 1.039124%, 31.567383%)" offset="0.980469"/><stop stop-opacity="1" stop-color="rgb(62.593079%, 0.831604%, 31.533813%)" offset="0.984375"/><stop stop-opacity="1" stop-color="rgb(62.443542%, 0.622559%, 31.500244%)" offset="0.988281"/><stop stop-opacity="1" stop-color="rgb(62.295532%, 0.415039%, 31.466675%)" offset="0.992188"/><stop stop-opacity="1" stop-color="rgb(62.147522%, 0.20752%, 31.433105%)" offset="0.996094"/><stop stop-opacity="1" stop-color="rgb(61.999512%, 0%, 31.399536%)" offset="1"/></linearGradient><clipPath id="9ac6d5661a"><path d="M 10.175781 43.242188 L 61 43.242188 L 61 68.683594 L 10.175781 68.683594 Z M 10.175781 43.242188 " clip-rule="nonzero"/></clipPath><clipPath id="ee8c8caf39"><path d="M 57.882812 22.933594 L 86.101562 22.933594 L 86.101562 28.855469 L 57.882812 28.855469 Z M 57.882812 22.933594 " clip-rule="nonzero"/></clipPath></defs><rect x="-9.6" width="115.2" fill="#ffffff" y="-9.6" height="115.199999" fill-opacity="1"/><rect x="-9.6" fill="url(#3234bc22da)" width="115.2" y="-9.6" height="115.199999"/><path fill="#ffffff" d="M 53.089844 46.585938 C 54.125 47.585938 54.480469 48.820312 54.566406 49.171875 C 55.167969 48.78125 55.726562 48.375 56.226562 47.949219 C 56.140625 46.722656 55.191406 45.300781 55.191406 45.300781 C 56.039062 46.125 56.433594 47.105469 56.589844 47.625 C 57.074219 47.179688 57.496094 46.710938 57.855469 46.210938 C 57.703125 45.03125 56.839844 43.734375 56.839844 43.734375 C 57.554688 44.429688 57.945312 45.234375 58.144531 45.78125 C 58.707031 44.878906 59.066406 43.875 59.179688 42.726562 C 59.179688 42.726562 58.972656 40.175781 58.335938 39.207031 C 58.335938 39.207031 58.730469 41.066406 55.316406 42.894531 C 51.902344 44.722656 42.613281 51.953125 41.402344 54.648438 C 41.402344 54.648438 41.886719 55.789062 42.566406 56.609375 C 42.566406 56.609375 42.824219 56.378906 43.296875 55.992188 C 43.183594 55.597656 42.964844 55.058594 42.539062 54.375 C 42.539062 54.375 43.230469 55.082031 43.617188 55.738281 C 44.042969 55.402344 44.589844 54.988281 45.242188 54.527344 C 44.988281 53.457031 44.292969 52.410156 44.292969 52.410156 C 44.949219 53.046875 45.332031 53.777344 45.542969 54.316406 C 46.078125 53.945312 46.675781 53.550781 47.324219 53.148438 C 47.101562 52.035156 46.347656 50.902344 46.347656 50.902344 C 47.0625 51.597656 47.453125 52.402344 47.652344 52.949219 C 48.238281 52.597656 48.863281 52.238281 49.523438 51.890625 C 49.433594 50.667969 48.492188 49.257812 48.492188 49.257812 C 49.398438 50.136719 49.785156 51.199219 49.921875 51.683594 C 50.15625 51.5625 50.390625 51.445312 50.632812 51.328125 C 51.058594 51.121094 51.46875 50.917969 51.871094 50.710938 C 51.878906 49.449219 50.828125 47.878906 50.828125 47.878906 C 51.878906 48.894531 52.230469 50.152344 52.308594 50.484375 C 52.953125 50.144531 53.558594 49.800781 54.132812 49.445312 C 54.15625 48.179688 53.089844 46.585938 53.089844 46.585938 " fill-opacity="1" fill-rule="nonzero"/><path fill="#ffffff" d="M 39.625 55.914062 C 38.390625 54.800781 37.113281 53.984375 35.839844 53.390625 C 34.523438 55.019531 31.257812 58.332031 25.28125 60.285156 C 25.28125 60.285156 31.90625 57.277344 35.023438 53.039062 C 28.589844 50.515625 22.46875 53.472656 22.46875 53.472656 C 21.882812 55.222656 19.382812 57.40625 19.382812 57.40625 C 9.605469 59.414062 10.746094 64.179688 10.746094 64.179688 C 10.746094 64.179688 13.746094 62.132812 15.46875 63.980469 C 17.195312 65.828125 21.289062 64.820312 21.289062 64.820312 C 38.453125 62.171875 39.625 55.914062 39.625 55.914062 " fill-opacity="1" fill-rule="nonzero"/><path fill="#ffffff" d="M 53.605469 29.113281 C 53.480469 28.882812 53.304688 28.632812 53.09375 28.382812 C 54.140625 37.082031 48.042969 35.714844 48.042969 35.714844 C 53.328125 36.132812 52.914062 30.191406 52.542969 27.820312 C 51.558594 26.9375 50.128906 26.214844 48.691406 26.503906 C 48.691406 26.503906 48.714844 28.367188 50.300781 30.335938 C 51.886719 32.308594 50.445312 34.671875 49.359375 34.960938 C 48.273438 35.25 46.296875 34.710938 44.847656 33.996094 C 43.398438 33.285156 40.761719 32.25 39.589844 36.171875 C 39.589844 36.171875 40.597656 35.972656 42.535156 36.65625 C 44.46875 37.34375 48.488281 38.171875 49.738281 38.246094 C 50.992188 38.324219 52.644531 37.710938 53.300781 36.457031 C 53.960938 35.207031 55.070312 32.113281 55.070312 32.113281 C 55.070312 32.113281 54.273438 30.355469 53.605469 29.113281 " fill-opacity="1" fill-rule="nonzero"/><path fill="#ffffff" d="M 48.210938 26.519531 C 48.210938 26.519531 48.335938 28.542969 49.605469 30.160156 C 50.875 31.78125 50.960938 33.074219 49.785156 34.1875 C 48.605469 35.300781 46.175781 33.84375 43.070312 32.835938 C 43.070312 32.835938 42.488281 32.042969 41.789062 31.691406 C 41.789062 31.691406 42.917969 29.453125 43.492188 28.65625 C 44.066406 27.855469 44.476562 27.808594 44.984375 27.550781 C 45.496094 27.289062 47.730469 26.386719 48.210938 26.519531 " fill-opacity="1" fill-rule="nonzero"/><path fill="#ffffff" d="M 23.09375 50.941406 C 22.960938 50.722656 23.03125 50.441406 23.246094 50.308594 C 26.523438 48.324219 31.082031 49.046875 31.125 49.042969 C 31.375 49.078125 31.546875 49.3125 31.511719 49.566406 C 31.472656 49.816406 31.238281 49.992188 30.988281 49.953125 C 30.988281 49.953125 30.925781 49.945312 30.804688 49.929688 C 30.679688 49.917969 30.496094 49.898438 30.269531 49.882812 C 29.8125 49.847656 29.171875 49.824219 28.4375 49.855469 C 26.972656 49.917969 25.148438 50.21875 23.726562 51.09375 C 23.613281 51.160156 23.484375 51.175781 23.367188 51.144531 C 23.257812 51.113281 23.160156 51.042969 23.09375 50.941406 " fill-opacity="1" fill-rule="nonzero"/><path fill="#ffffff" d="M 24.867188 47.261719 C 24.75 47.035156 24.839844 46.757812 25.066406 46.640625 C 28.792969 44.726562 33.609375 45.675781 33.648438 45.671875 C 33.902344 45.71875 34.066406 45.957031 34.015625 46.207031 C 33.96875 46.457031 33.730469 46.621094 33.480469 46.574219 C 33.480469 46.574219 33.414062 46.5625 33.285156 46.542969 C 33.152344 46.523438 32.957031 46.496094 32.714844 46.46875 C 32.226562 46.414062 31.535156 46.359375 30.742188 46.363281 C 29.152344 46.363281 27.144531 46.597656 25.488281 47.457031 C 25.382812 47.515625 25.261719 47.523438 25.15625 47.496094 C 25.035156 47.460938 24.929688 47.378906 24.867188 47.261719 " fill-opacity="1" fill-rule="nonzero"/><path fill="#ffffff" d="M 26.636719 43.683594 C 26.519531 43.457031 26.609375 43.179688 26.835938 43.0625 C 30.480469 41.203125 34.0625 41.957031 35.15625 42.25 C 35.371094 42.308594 35.492188 42.351562 35.5 42.355469 C 35.738281 42.4375 35.867188 42.699219 35.78125 42.941406 C 35.699219 43.179688 35.4375 43.308594 35.195312 43.222656 C 35.195312 43.222656 35.175781 43.21875 35.128906 43.203125 C 35.082031 43.1875 35.007812 43.164062 34.914062 43.140625 C 33.929688 42.871094 30.570312 42.179688 27.253906 43.882812 C 27.148438 43.9375 27.03125 43.945312 26.925781 43.917969 C 26.804688 43.886719 26.695312 43.804688 26.636719 43.683594 " fill-opacity="1" fill-rule="nonzero"/><path fill="#ffffff" d="M 28.09375 39.78125 C 27.980469 39.554688 28.070312 39.277344 28.296875 39.164062 C 31.289062 37.648438 34.589844 38.238281 36.261719 38.6875 C 36.949219 38.875 37.363281 39.042969 37.378906 39.050781 C 37.613281 39.144531 37.726562 39.414062 37.628906 39.648438 C 37.535156 39.882812 37.265625 40 37.03125 39.902344 C 37.03125 39.902344 36.945312 39.867188 36.769531 39.808594 C 36.597656 39.746094 36.339844 39.664062 36.019531 39.578125 C 34.445312 39.144531 31.351562 38.632812 28.714844 39.984375 C 28.609375 40.039062 28.492188 40.046875 28.382812 40.019531 C 28.261719 39.984375 28.15625 39.902344 28.09375 39.78125 " fill-opacity="1" fill-rule="nonzero"/><path fill="#ffffff" d="M 27.792969 50.210938 C 25.394531 50.429688 24.082031 51.101562 23.542969 51.453125 C 23.179688 52.199219 22.964844 52.625 22.964844 52.625 C 25.617188 51.359375 28.558594 51.363281 28.558594 51.363281 C 28.011719 50.859375 27.800781 50.503906 27.792969 50.210938 " fill-opacity="1" fill-rule="nonzero"/><path fill="#ffffff" d="M 24.507812 49.460938 C 26.152344 48.816406 27.800781 48.65625 29.042969 48.660156 C 29.050781 48.652344 29.054688 48.644531 29.0625 48.636719 C 29.285156 48.359375 29.828125 47.601562 30.523438 46.609375 C 27.800781 46.65625 26.070312 47.34375 25.335938 47.710938 C 25.042969 48.339844 24.765625 48.925781 24.507812 49.460938 " fill-opacity="1" fill-rule="nonzero"/><path fill="#ffffff" d="M 26.152344 45.941406 C 27.945312 45.210938 30.011719 45.132812 31.496094 45.203125 C 31.976562 44.507812 32.484375 43.765625 32.984375 43.027344 C 30.136719 42.769531 27.863281 43.761719 26.902344 44.277344 C 26.648438 44.847656 26.398438 45.402344 26.152344 45.941406 " fill-opacity="1" fill-rule="nonzero"/><path fill="#ffffff" d="M 53.875 41.945312 C 51.125 43.582031 46.6875 46.433594 44.640625 48.980469 C 44.640625 48.980469 46.546875 46.078125 50.847656 42.554688 C 55.148438 39.027344 55.503906 34.511719 55.503906 34.511719 C 55.503906 34.511719 57.039062 37.632812 57.207031 38.476562 C 57.207031 38.476562 56.632812 40.308594 53.875 41.945312 Z M 40.347656 53.0625 C 37.574219 51.273438 35.40625 50.761719 34.3125 50.386719 C 33.222656 50.007812 34.550781 48.9375 34.550781 48.9375 C 36.277344 47.261719 40.886719 39.683594 41.6875 38.785156 C 42.488281 37.890625 42.925781 38.328125 42.925781 38.328125 C 45 38.894531 49.15625 39.707031 49.15625 39.707031 C 49.15625 39.707031 52.214844 39.582031 49.460938 42.097656 C 46.707031 44.609375 40.347656 53.0625 40.347656 53.0625 Z M 55.378906 32.726562 C 55.378906 32.726562 54.238281 36.128906 53.34375 37.476562 C 52.445312 38.824219 50.433594 38.808594 50.433594 38.808594 C 50.433594 38.808594 45.917969 38.640625 42.074219 37.167969 C 38.234375 35.699219 36.816406 38.175781 36.816406 38.175781 C 36.816406 38.175781 36.730469 38.308594 36.582031 38.542969 C 37.101562 38.691406 37.429688 38.820312 37.476562 38.859375 C 37.671875 39.019531 38.050781 39.28125 37.820312 39.75 C 37.585938 40.214844 36.972656 40.128906 36.972656 40.128906 C 36.5625 39.988281 36.171875 39.875 35.785156 39.777344 C 35.410156 40.355469 34.953125 41.0625 34.453125 41.820312 C 35.25 41.980469 35.703125 42.171875 35.703125 42.171875 C 35.703125 42.171875 36.269531 42.617188 35.9375 43.160156 C 35.601562 43.707031 35.09375 43.4375 35.09375 43.4375 C 34.582031 43.28125 34.089844 43.171875 33.605469 43.101562 C 33.128906 43.8125 32.636719 44.542969 32.15625 45.246094 C 32.972656 45.316406 33.492188 45.414062 33.492188 45.414062 C 33.492188 45.414062 34.332031 45.457031 34.234375 46.199219 C 34.136719 46.941406 33.308594 46.769531 33.308594 46.769531 C 32.558594 46.671875 31.859375 46.625 31.207031 46.609375 C 30.632812 47.421875 30.101562 48.140625 29.675781 48.675781 C 30.566406 48.71875 31.132812 48.828125 31.132812 48.828125 C 31.132812 48.828125 31.90625 48.90625 31.824219 49.601562 C 31.738281 50.292969 30.84375 50.183594 30.84375 50.183594 C 29.941406 50.125 29.136719 50.125 28.414062 50.164062 C 28.363281 50.851562 29.710938 51.414062 29.710938 51.414062 C 35.996094 51.320312 39.9375 55.152344 39.9375 55.152344 C 42.308594 51.128906 50.257812 44.914062 54.558594 42.371094 C 57.449219 40.660156 58.085938 38.769531 58.085938 38.769531 C 57.707031 36.648438 55.378906 32.726562 55.378906 32.726562 " fill-opacity="1" fill-rule="nonzero"/><path fill="#ffffff" d="M 27.742188 42.367188 C 30.289062 41.488281 32.441406 41.515625 33.863281 41.71875 C 34.367188 40.96875 34.835938 40.257812 35.234375 39.644531 C 31.71875 38.902344 29.429688 39.867188 28.609375 40.316406 C 28.324219 41.003906 28.03125 41.691406 27.742188 42.367188 Z M 42.464844 32.714844 C 40.84375 31.078125 37.386719 30.613281 37.386719 30.613281 C 37.386719 30.613281 35.410156 30.871094 33.355469 31.109375 C 31.300781 31.34375 31.542969 32.207031 31.542969 32.207031 C 31.011719 34.085938 30.234375 36.257812 29.359375 38.460938 C 31.644531 37.601562 34.382812 37.988281 36.027344 38.394531 C 36.113281 38.253906 36.1875 38.128906 36.246094 38.023438 C 37.3125 36.164062 39.019531 36.308594 39.019531 36.308594 C 39.652344 32.820312 42.464844 32.714844 42.464844 32.714844 " fill-opacity="1" fill-rule="nonzero"/><path fill="#ffffff" d="M 40.597656 51.683594 C 40.597656 51.683594 38.675781 47.347656 41.40625 44.210938 C 44.140625 41.074219 41.46875 38.96875 41.46875 38.96875 C 41.46875 38.96875 43.917969 40.457031 43.226562 42.75 C 42.535156 45.042969 39.617188 46.585938 40.597656 51.683594 " fill-opacity="1" fill-rule="nonzero"/><g clip-path="url(#9ac6d5661a)"><path fill="#ffffff" d="M 59.546875 43.328125 C 59.546875 43.328125 60.503906 46.535156 53.980469 50.328125 C 47.460938 54.121094 45.128906 55.078125 42.410156 57.761719 C 42.410156 57.761719 42.132812 57.453125 41.8125 57.035156 L 40.9375 55.640625 C 40.867188 55.472656 40.820312 55.316406 40.808594 55.175781 L 40.21875 56.628906 C 37.011719 62.828125 25.890625 64.707031 25.890625 64.707031 L 25.863281 64.71875 C 24.917969 64.9375 22.355469 65.503906 19.726562 65.882812 C 16.414062 66.359375 16.566406 65.019531 13.703125 64.242188 C 10.835938 63.460938 10.175781 66.675781 10.175781 66.675781 C 18.867188 70.847656 28.359375 67.886719 28.359375 67.886719 L 27.625 66.527344 C 28.429688 66.414062 29.191406 66.277344 29.910156 66.121094 L 30.828125 67.578125 L 34.371094 66.550781 L 33.375 65.132812 C 33.902344 64.9375 34.402344 64.738281 34.871094 64.527344 L 35.816406 65.910156 L 38.476562 64.328125 L 37.582031 63.027344 C 37.949219 62.78125 38.289062 62.53125 38.601562 62.285156 L 39.425781 63.472656 L 41.160156 61.824219 L 40.398438 60.570312 C 40.746094 60.171875 41.03125 59.789062 41.261719 59.441406 L 41.886719 60.5625 C 41.886719 60.5625 43.671875 58.105469 47.164062 56.667969 C 50.660156 55.230469 60.042969 50.863281 60.992188 47.382812 C 60.992188 47.382812 60.550781 44.320312 59.546875 43.328125 " fill-opacity="1" fill-rule="nonzero"/></g><path fill="#ffffff" d="M 35.816406 65.910156 L 78.847656 55.40625 L 38.085938 64.179688 Z M 35.816406 65.910156 " fill-opacity="1" fill-rule="nonzero"/><path fill="#ffffff" d="M 39.457031 63.355469 L 63.863281 57.375 L 41.160156 61.824219 Z M 39.457031 63.355469 " fill-opacity="1" fill-rule="nonzero"/><path fill="#ffffff" d="M 55.359375 52.296875 L 85.792969 44.4375 L 57.460938 50.46875 Z M 55.359375 52.296875 " fill-opacity="1" fill-rule="nonzero"/><path fill="#ffffff" d="M 60.292969 47.910156 L 77.386719 43.707031 L 60.386719 46.8125 Z M 60.292969 47.910156 " fill-opacity="1" fill-rule="nonzero"/><path fill="#ffffff" d="M 58.558594 40.78125 L 84.148438 35.480469 L 58.921875 41.878906 Z M 58.558594 40.78125 " fill-opacity="1" fill-rule="nonzero"/><path fill="#ffffff" d="M 50.515625 26.890625 L 70.621094 23.601562 L 51.976562 27.804688 Z M 50.515625 26.890625 " fill-opacity="1" fill-rule="nonzero"/><g clip-path="url(#ee8c8caf39)"><path fill="#ffffff" d="M 57.957031 28.835938 C 57.957031 28.835938 73.199219 24.804688 86.394531 22.933594 C 86.394531 22.933594 70.324219 27.222656 57.957031 28.835938 " fill-opacity="1" fill-rule="nonzero"/></g><path fill="#ffffff" d="M 60.386719 37.855469 C 60.386719 37.855469 64.957031 36.03125 71.535156 35.480469 C 71.535156 35.480469 65.871094 37.125 60.386719 37.855469 " fill-opacity="1" fill-rule="nonzero"/></svg>